<svg xmlns="http://www.w3.org/2000/svg" viewBox="0 0 1440 720" role="img" aria-labelledby="title desc">
  <title id="title">AURASeg drivable area segmentation illustration</title>
  <desc id="desc">Stylised road scene showing segmentation masks with drivable ribbon highlighted.</desc>
  <defs>
    <linearGradient id="bg" x1="0" y1="0" x2="1" y2="1">
      <stop offset="0%" stop-color="#0b1430" />
      <stop offset="60%" stop-color="#132147" />
      <stop offset="100%" stop-color="#060b1e" />
    </linearGradient>
    <linearGradient id="road" x1="0.5" y1="0" x2="0.5" y2="1">
      <stop offset="0%" stop-color="#1f2d54" />
      <stop offset="100%" stop-color="#111a36" />
    </linearGradient>
    <linearGradient id="mask" x1="0" y1="0" x2="1" y2="0">
      <stop offset="0%" stop-color="#7a8bff" stop-opacity="0.85" />
      <stop offset="100%" stop-color="#43d3ff" stop-opacity="0.9" />
    </linearGradient>
    <linearGradient id="puddle" x1="0" y1="0" x2="0" y2="1">
      <stop offset="0%" stop-color="#5de6ff" stop-opacity="0.4" />
      <stop offset="100%" stop-color="#1f6bff" stop-opacity="0.15" />
    </linearGradient>
    <clipPath id="road-clip">
      <path d="M480 720 L0 0 H1440 L960 720 Z" />
    </clipPath>
    <filter id="glow" x="-20%" y="-20%" width="140%" height="140%">
      <feGaussianBlur stdDeviation="20" result="blur" />
      <feMerge>
        <feMergeNode in="blur" />
        <feMergeNode in="SourceGraphic" />
      </feMerge>
    </filter>
  </defs>
  <rect width="1440" height="720" fill="url(#bg)" />
  <g opacity="0.35">
    <circle cx="180" cy="120" r="90" fill="#233166" />
    <circle cx="360" cy="220" r="60" fill="#1e2b56" />
    <circle cx="1240" cy="180" r="120" fill="#1f2a52" />
    <circle cx="1080" cy="520" r="80" fill="#233369" />
  </g>
  <g clip-path="url(#road-clip)">
    <rect x="-20" y="-40" width="1500" height="820" fill="url(#road)" />
    <path d="M180 740 C360 520 420 320 540 240 C720 120 900 120 1080 240 C1240 340 1340 520 1500 780" fill="none" stroke="#141f3f" stroke-width="28" stroke-linecap="round" />
    <path d="M220 720 C380 520 420 320 540 240 C720 120 900 120 1080 240 C1220 330 1310 470 1440 700" fill="url(#mask)" opacity="0.8" filter="url(#glow)" />
    <path d="M740 450 C780 420 820 420 860 450" fill="none" stroke="#ffffff" stroke-opacity="0.4" stroke-width="6" stroke-linecap="round" stroke-dasharray="18 32" />
    <path d="M620 520 C670 500 710 500 760 520" fill="none" stroke="#ffffff" stroke-opacity="0.35" stroke-width="6" stroke-linecap="round" stroke-dasharray="18 32" />
    <path d="M900 520 C960 480 1000 470 1080 510" fill="url(#puddle)" opacity="0.7" />
    <path d="M1020 610 C1100 570 1170 560 1260 600" fill="url(#puddle)" opacity="0.5" />
  </g>
  <g opacity="0.85">
    <path d="M280 160 h140" stroke="#7a8bff" stroke-width="6" stroke-linecap="round" />
    <text x="280" y="210" font-family="'DM Sans', 'Segoe UI', sans-serif" font-size="28" fill="#d8e0ff" font-weight="600">Dynamic masks with InfoNCE</text>
    <path d="M280 250 h110" stroke="#43d3ff" stroke-width="6" stroke-linecap="round" />
    <text x="280" y="300" font-family="'DM Sans', 'Segoe UI', sans-serif" font-size="24" fill="#b6c4ff">Phase-aligned positives · glare-aware</text>
  </g>
  <g opacity="0.82" transform="translate(880 120)">
    <rect x="0" y="0" width="420" height="220" rx="28" fill="rgba(10,16,38,0.7)" stroke="rgba(123,131,255,0.4)" stroke-width="2" />
    <text x="40" y="70" font-family="'DM Sans', 'Segoe UI', sans-serif" font-size="26" fill="#f2f5ff" font-weight="600">AURASeg rollout</text>
    <text x="40" y="118" font-family="'DM Sans', 'Segoe UI', sans-serif" font-size="22" fill="#c7d0ff">- Attention-guided upsampling</text>
    <text x="40" y="152" font-family="'DM Sans', 'Segoe UI', sans-serif" font-size="22" fill="#c7d0ff">- Residual boundary refinement</text>
    <text x="40" y="186" font-family="'DM Sans', 'Segoe UI', sans-serif" font-size="22" fill="#c7d0ff">- Jetson-ready inference</text>
  </g>
</svg>
