<?xml version="1.0" encoding="UTF-8"?>
<!-- Generator: visioncortex VTracer 0.6.12 -->
<svg version="1.1" xmlns="http://www.w3.org/2000/svg" width="2401" height="894">
<path d="M0 0 C3.06 3.69 3.48 5.77 3.16 10.59 C2.43 16.62 0.69 22.33 -1.02 28.14 C-2.98 34.84 -4.79 41.46 -6.09 48.32 C-6.94 52.4 -8.21 56.35 -9.46 60.33 C-11.7 67.62 -13.71 74.9 -15.51 82.32 C-16.88 87.96 -18.36 93.58 -19.84 99.2 C-19.97 99.72 -19.97 99.72 -20.66 102.34 C-21.3 104.79 -21.94 107.25 -22.59 109.7 C-23.43 109.73 -24.27 109.75 -25.14 109.78 C-26.24 109.84 -27.33 109.89 -28.46 109.95 C-29.55 110 -30.64 110.05 -31.77 110.09 C-32.23 110.19 -32.23 110.19 -34.59 110.7 C-35.78 112.56 -35.78 112.56 -36.59 114.7 C-37.08 115.12 -37.58 115.54 -38.09 115.98 C-40.42 118.67 -40.84 121.93 -41.59 125.33 C-42.74 130.42 -44.08 135.35 -45.77 140.29 C-47.3 144.81 -48.64 149.39 -50.02 153.95 C-50.33 154.97 -50.64 155.98 -50.96 157.03 C-52.23 161.23 -53.51 165.43 -54.75 169.63 C-58.07 180.72 -62.28 191.27 -67.15 201.77 C-67.52 202.59 -67.9 203.41 -68.29 204.26 C-70.3 208.52 -72.19 211.4 -75.59 214.7 C-76.9 217.15 -78.11 219.57 -79.27 222.08 C-83.12 230.06 -87.64 237.36 -92.59 244.7 C-93.13 245.52 -93.68 246.34 -94.24 247.19 C-95.2 248.63 -96.16 250.07 -97.13 251.5 C-98.79 254.01 -100.41 256.54 -102.02 259.08 C-102.61 260 -103.2 260.93 -103.81 261.88 C-104.98 263.74 -106.13 265.61 -107.27 267.5 C-110.84 273.34 -114.74 278.36 -119.47 283.32 C-121.59 285.7 -121.59 285.7 -123.49 288.61 C-125.84 292.08 -128.5 294.94 -131.4 297.95 C-139.95 307.11 -145.22 315.1 -148.83 327.25 C-149.72 330.15 -150.68 333.03 -151.64 335.91 C-152.37 338.13 -153.1 340.36 -153.84 342.58 C-154.19 343.64 -154.54 344.69 -154.91 345.78 C-156.63 351.1 -157.94 356.06 -158.36 361.64 C-158.59 363.74 -159.08 365.58 -159.69 367.61 C-161.01 372.55 -160.45 377.23 -159.9 382.27 C-159.82 383.17 -159.74 384.08 -159.66 385.01 C-158.83 393.21 -157.08 399.16 -150.59 404.7 C-144.35 408.89 -133.46 407.45 -126.36 406.09 C-114.18 402.3 -102.66 395.74 -92.24 388.5 C-89.92 386.93 -87.63 385.61 -85.15 384.33 C-79.34 381.21 -74.28 377 -69.13 372.92 C-66.25 370.66 -63.32 368.47 -60.39 366.27 C-58.45 364.59 -57.11 362.76 -55.59 360.7 C-52.91 358.9 -50.65 357.72 -47.59 356.7 C-47.28 356.06 -46.97 355.42 -46.65 354.77 C-45.33 352.2 -44.1 351.96 -41.59 350.7 C-41.45 350.41 -41.45 350.41 -40.79 348.94 C-39.16 345.91 -36.94 344.19 -34.34 341.95 C-31 339.04 -27.99 336.18 -25.46 332.52 C-23.35 329.48 -21.19 327.5 -18.21 325.33 C-13.02 321.51 -9.44 316.82 -5.59 311.7 C-3.39 308.96 -1.18 306.28 1.34 303.83 C4.09 301.01 6.31 297.9 8.63 294.73 C10.41 292.7 10.41 292.7 12.51 291.68 C14.98 290.41 15.28 289.2 16.41 286.7 C18.35 284.16 20.38 281.71 22.41 279.25 C24.09 277.12 25.43 275.03 26.79 272.7 C29.99 269.04 32.23 268.26 36.96 267.58 C39.75 267.72 40.88 268.23 43.04 269.95 C45.41 272.7 45.41 272.7 45.41 274.7 C46.4 275.03 47.39 275.36 48.41 275.7 C50.02 278.51 50.43 280.34 50.29 283.58 C49.45 286.59 48.21 288.75 46.59 291.4 C44.7 295.11 43.54 299.07 42.27 303.03 C41.12 306.61 39.89 310.11 38.41 313.58 C36.61 317.93 35.32 322.36 34.04 326.89 C32.41 332.63 30.56 338.18 28.29 343.7 C28.03 344.33 27.78 344.95 27.51 345.6 C27.26 346.2 27.02 346.8 26.76 347.42 C25.1 351.47 23.61 355.49 22.41 359.7 C22.26 360.24 22.26 360.24 21.46 362.97 C19.43 370.9 18.77 377.18 22.41 384.7 C24.66 387.39 24.66 387.39 27.41 388.7 C44.33 389.67 59.54 380.7 72.41 370.7 C73.21 370.11 74.01 369.52 74.83 368.91 C86.38 360.09 96.26 349.7 104.41 337.7 C105.47 336.32 106.53 334.95 107.6 333.58 C113.75 325.29 116.89 316.73 120.01 306.99 C121.03 303.83 122.13 300.76 123.41 297.7 C126.54 290.21 128.89 282.41 131.41 274.7 C132.07 274.7 132.73 274.7 133.41 274.7 C133.64 274.13 133.87 273.55 134.1 272.95 C135.88 269.9 137.32 268.48 140.41 266.7 C143.71 266.22 146.31 266.5 149.41 267.7 C152.2 270 154.08 272.35 155.41 275.7 C155.84 281.51 155.03 286.39 153.41 291.95 C153.2 292.72 152.98 293.48 152.76 294.27 C150.46 302.08 147.42 309.57 144.28 317.08 C140.68 325.9 138.62 334.25 137.29 343.7 C137.12 344.89 136.94 346.08 136.77 347.31 C135.65 355.26 134.88 363.13 134.59 371.15 C134.46 373.75 134.22 376.15 133.85 378.7 C132.13 391.74 137.18 405.53 141.41 417.7 C163.69 416.5 163.69 416.5 171.79 411.7 C175.79 407.13 179.63 402.45 183.41 397.7 C184.41 396.53 185.41 395.37 186.41 394.2 C188.41 391.7 188.41 391.7 189.41 388.7 C190.07 388.7 190.73 388.7 191.41 388.7 C191.67 387.98 191.93 387.25 192.2 386.5 C193.45 383.61 194.9 381.46 196.79 378.95 C201.07 373.2 205.2 367.35 209.29 361.45 C209.53 361.1 209.53 361.1 210.78 359.33 C211.21 358.7 211.65 358.08 212.1 357.43 C213.41 355.7 213.41 355.7 215 354.14 C216.41 352.7 216.41 352.7 217.66 350.14 C219.17 347.19 220.75 344.71 222.66 342.02 C225.24 338.38 227.78 334.74 230.23 331.02 C230.79 330.17 231.35 329.32 231.93 328.44 C235.06 322.65 235.87 316.38 236.79 309.95 C238.28 300.11 240.22 290.41 242.41 280.7 C242.7 279.43 242.98 278.15 243.28 276.83 C247.63 258.4 253.9 240.41 260.65 222.73 C261.36 220.84 262.06 218.93 262.75 217.03 C265.07 210.75 267.75 204.96 271.07 199.14 C272.23 197.04 273.13 195.01 273.98 192.77 C276.11 188.21 278.89 186.52 283.23 184.2 C287.2 183.58 289.14 184.34 292.58 186.32 C295.7 188.67 297.21 191.01 298.41 194.7 C300.12 216.22 294.78 238.49 288.06 258.71 C287.31 261.02 286.67 263.35 286.04 265.7 C281.12 282.24 272.93 298.53 265.32 313.98 C259.16 326.52 259.16 326.52 259.41 333.7 C259.44 334.69 259.47 335.68 259.49 336.7 C259.83 343.04 260.42 348.25 264.73 353.22 C269.53 357.45 276.44 359.37 282.75 359.02 C294.4 357.64 303.92 355.15 314.41 349.7 C315.8 349.01 317.18 348.33 318.57 347.64 C321.31 346.28 324.05 344.92 326.79 343.54 C327.4 343.23 328.01 342.92 328.64 342.6 C330.35 341.74 332.06 340.85 333.76 339.96 C336.41 338.7 336.41 338.7 338.41 338.7 C338.55 338.04 338.68 337.38 338.82 336.69 C340.41 328.7 340.41 328.7 340.95 326.3 C341.52 323.12 341.68 319.99 341.85 316.77 C343.07 297.38 343.07 297.38 346.41 290.7 C346.73 288.79 347 286.88 347.23 284.95 C348 279.95 349.24 276.64 352.14 272.54 C353.39 270.74 354.22 269.01 355.1 267.02 C358.18 260.64 363.02 255.21 367.41 249.7 C367.77 249.25 367.77 249.25 369.59 246.96 C375.59 239.55 382.89 233.87 391.41 229.7 C392.02 229.08 392.63 228.46 393.25 227.81 C397.02 224.14 401.75 222.07 406.41 219.7 C407.06 219.37 407.71 219.03 408.37 218.69 C415.45 215.31 423.84 214.85 431.41 216.7 C438.77 219.41 443.08 223.67 446.41 230.7 C449.71 238.84 452.97 247.84 451.41 256.7 C451.25 257.07 451.25 257.07 450.41 258.94 C449.06 262.69 449.12 266.33 449.04 270.27 C448.69 279.73 447.02 288.58 445.02 297.81 C443.84 303.46 442.83 309.15 441.79 314.83 C441.38 317.06 440.97 319.29 440.56 321.52 C440.47 322.05 440.47 322.05 439.98 324.71 C439.47 327.41 438.91 330.1 438.34 332.78 C437.23 338.26 436.74 343.76 436.29 349.33 C436.2 350.33 436.12 351.34 436.03 352.37 C435.82 354.81 435.61 357.26 435.41 359.7 C440.31 358.33 442.59 355.47 445.48 351.52 C445.9 350.96 446.32 350.41 446.75 349.84 C449.22 346.54 451.31 343.17 453.32 339.56 C455.92 335.15 459.07 331.07 462.08 326.93 C464.92 322.98 467.36 319.14 469.41 314.7 C469.71 314.12 469.71 314.12 471.2 311.15 C476.93 299.53 476.93 299.53 477.18 292.81 C477.57 289.34 479.06 286.36 480.45 283.19 C481.4 280.73 481.87 278.49 482.29 275.89 C483.01 272.42 483.53 271.57 485.98 268.7 C490.13 266.29 493.59 265.09 498.41 265.7 C501.83 268.25 503.76 270.82 505.41 274.7 C506.57 283.63 503.92 292.93 500.39 301.06 C499.4 303.73 499.02 305.96 498.78 308.79 C498.74 309.27 498.74 309.27 498.53 311.67 C498.49 312.16 498.49 312.16 498.29 314.64 C498.2 315.62 498.12 316.59 498.03 317.6 C497.62 322.31 497.3 326.97 497.41 331.7 C501.38 331.1 503.83 329.1 506.98 326.7 C512.11 322.81 512.11 322.81 515.41 321.7 C515.41 321.04 515.41 320.38 515.41 319.7 C516.79 318.81 518.16 317.92 519.55 317.05 C522.61 314.83 525.1 312.06 527.68 309.31 C529.41 307.7 529.41 307.7 531.41 307.7 C531.64 307.15 531.87 306.59 532.1 306.02 C533.41 303.7 533.41 303.7 535.85 301.39 C539.42 297.65 540.95 293.71 542.1 288.7 C544.55 283.1 549.11 279.68 554.66 277.33 C559.75 277.84 563.04 280.14 567.25 282.94 C572.35 285.78 576.35 287.06 582.17 286.06 C582.8 285.87 582.8 285.87 585.98 284.89 C601.49 280.55 617.19 281.23 632.79 284.89 C644.78 287.43 656.39 283.61 666.51 277.17 C672.88 272.95 679.1 268.53 684.64 263.24 C689.19 259.3 694.4 256.6 699.73 253.89 C705.2 251.07 709.92 248.05 714.48 243.86 C716.41 242.7 716.41 242.7 719.16 243.02 C719.53 243.13 719.53 243.13 721.41 243.7 C722.06 247.32 722.36 249.22 721.41 252.7 C718.85 255.56 716.13 257.87 713.11 260.25 C710.22 262.88 709.07 265.21 707.41 268.7 C706.49 269.16 705.56 269.61 704.6 270.08 C701.39 271.72 700.8 272.31 698.91 275.14 C694.27 281.78 687.65 286.63 681.41 291.7 C680.56 292.4 679.7 293.1 678.82 293.82 C676.71 295.49 674.58 297.1 672.41 298.7 C671.75 299.22 671.08 299.74 670.39 300.28 C659.96 307.95 645.26 312.3 632.38 310.4 C630.06 310.01 627.74 309.61 625.41 309.2 C611.96 306.94 599.47 306.55 586.25 310.28 C579.71 312.11 573.86 312.26 567.23 310.7 C563.1 309.74 559.36 309.15 555.23 310.33 C553.41 311.7 553.41 311.7 552.66 314.27 C549.7 322.42 541.92 328.25 535.41 333.7 C533.7 335.17 531.98 336.64 530.27 338.11 C529.04 339.17 527.81 340.22 526.57 341.27 C522.62 344.65 518.71 348.08 514.87 351.59 C513.41 352.7 513.41 352.7 511.41 352.7 C511.41 353.69 511.41 354.68 511.41 355.7 C512.38 356.51 513.35 357.31 514.35 358.14 C518.06 361.25 518.06 361.25 518.41 364.7 C516.74 370.52 513.34 374.38 508.41 377.7 C505.98 378.7 505.98 378.7 503.41 378.7 C501.76 377.94 500.1 377.18 498.46 376.41 C490.04 373.51 478.73 376.16 470.1 377.02 C468.76 377.13 467.41 377.25 466.07 377.37 C464.78 377.5 463.5 377.62 462.18 377.75 C461.02 377.86 459.86 377.97 458.67 378.09 C454.35 378.9 450.74 380.26 447.73 383.54 C447.51 383.86 447.51 383.86 446.41 385.52 C443.71 389.36 440.9 392.54 437.41 395.7 C436.75 395.7 436.09 395.7 435.41 395.7 C435.08 396.69 434.75 397.68 434.41 398.7 C431.98 400.74 429.5 401.95 426.41 402.7 C419.81 401.56 415.11 395.92 411.41 390.7 C411.08 389.71 410.75 388.72 410.41 387.7 C399.45 388.53 388.68 389.37 377.96 391.92 C373.67 392.87 369.38 393.54 365.04 394.2 C353.85 395.92 342.76 398.02 331.66 400.27 C327.13 401.18 322.6 402.03 318.04 402.77 C311.98 403.75 306.03 404.9 300.16 406.7 C296.96 407.56 293.94 408.11 290.66 408.58 C284.14 409.52 277.73 410.85 271.3 412.29 C266.67 413.31 262.11 414.03 257.38 414.46 C254.3 414.84 251.39 415.84 248.41 416.7 C245.41 417.23 242.4 417.7 239.38 418.14 C236.41 418.7 236.41 418.7 233.75 419.65 C228.97 421.16 224.11 421.81 219.16 422.58 C203.67 425.11 203.67 425.11 196.35 426.58 C196 426.64 196 426.64 194.21 426.96 C187.56 428.36 183.15 432.1 179.41 437.7 C178.75 437.7 178.09 437.7 177.41 437.7 C177.21 438.24 177.01 438.78 176.81 439.33 C171.46 448.44 161.18 454.68 151.25 457.35 C145.4 458.08 140.17 456.03 135.41 452.7 C133.87 450.99 132.38 449.24 130.91 447.45 C126.89 442.81 126.89 442.81 122.66 441.89 C120.64 442.17 120.64 442.17 118.41 442.7 C117.6 442.89 116.78 443.08 115.94 443.27 C113.85 443.76 111.77 444.27 109.7 444.78 C104.03 446.08 98.28 446.85 92.54 447.7 C77.51 449.95 77.51 449.95 70.48 451.33 C69.35 451.55 68.23 451.77 67.07 451.99 C64.41 452.7 64.41 452.7 61.41 454.7 C59.42 455.14 59.42 455.14 57.12 455.41 C56.27 455.52 55.42 455.63 54.55 455.74 C53.64 455.85 52.73 455.96 51.79 456.08 C43.43 457.18 35.36 458.75 27.19 460.79 C22.92 461.82 18.65 462.61 14.32 463.31 C12.41 463.7 12.41 463.7 11.41 464.7 C9.32 465.14 7.21 465.52 5.1 465.89 C-2.85 467.32 -10.75 468.99 -18.65 470.7 C-42.2 475.78 -42.2 475.78 -52.05 477.48 C-52.43 477.54 -52.43 477.54 -54.37 477.88 C-55.84 478.13 -57.31 478.37 -58.78 478.61 C-61.76 479.12 -64.58 479.7 -67.44 480.68 C-70.52 481.68 -73.47 482.33 -76.66 482.89 C-77.8 483.09 -78.95 483.3 -80.12 483.51 C-80.72 483.61 -80.72 483.61 -83.71 484.14 C-90.43 485.32 -97.1 486.53 -103.71 488.24 C-109.6 489.76 -115.51 490.77 -121.52 491.7 C-128.95 492.9 -136.28 494.19 -143.59 495.99 C-147.09 496.82 -150.61 497.52 -154.15 498.2 C-159.56 499.27 -164.89 500.51 -170.23 501.89 C-175.32 503.12 -180.46 504.16 -185.59 505.22 C-190 506.14 -194.36 507.12 -198.71 508.27 C-203.53 509.52 -208.36 510.38 -213.27 511.2 C-218.53 512.08 -223.46 513.18 -228.46 515.03 C-230.91 515.81 -233.29 516.2 -235.84 516.58 C-241.59 517.45 -247.19 518.76 -252.84 520.14 C-260.41 521.99 -267.96 523.58 -275.64 524.96 C-282.22 526.17 -288.73 527.7 -295.25 529.18 C-297.67 529.72 -300.09 530.25 -302.52 530.78 C-303.32 530.95 -304.13 531.13 -304.96 531.31 C-306.5 531.65 -308.04 531.98 -309.57 532.31 C-312.74 533 -315.75 533.76 -318.83 534.79 C-321.96 535.83 -324.77 536.07 -328.05 536.26 C-330.37 536.67 -332.17 537.28 -334.35 538.14 C-338.52 539.77 -342.6 540.55 -347.02 541.2 C-351.41 541.86 -355.56 542.62 -359.75 544.11 C-365.87 546.24 -372.19 547.45 -378.52 548.77 C-379.73 549.02 -380.95 549.28 -382.19 549.54 C-385.66 550.27 -389.12 550.99 -392.59 551.7 C-393.07 551.8 -393.07 551.8 -395.5 552.3 C-399.7 553.16 -403.89 553.92 -408.15 554.52 C-413.79 555.43 -419.15 557 -424.59 558.67 C-432.37 561.02 -440.27 562.75 -448.2 564.49 C-451.92 565.31 -455.62 566.2 -459.31 567.14 C-465.75 568.76 -472.23 570.24 -478.71 571.69 C-480.76 572.15 -482.8 572.61 -484.84 573.07 C-490.62 574.38 -496.39 575.67 -502.18 576.91 C-509.59 578.49 -516.76 580.29 -523.92 582.83 C-527.32 583.94 -530.72 584.58 -534.24 585.21 C-536.53 585.69 -538.63 586.35 -540.84 587.14 C-547.83 589.59 -555.16 590.88 -562.43 592.23 C-563.26 592.39 -564.1 592.54 -564.96 592.7 C-565.32 592.76 -565.32 592.76 -567.11 593.08 C-569.59 593.7 -569.59 593.7 -572.96 595.04 C-579.19 597.44 -585.73 598.76 -592.21 600.27 C-594.79 600.87 -597.36 601.47 -599.94 602.08 C-601.07 602.35 -602.2 602.61 -603.37 602.88 C-606.5 603.68 -609.53 604.65 -612.59 605.7 C-614.96 606.41 -617.33 607.1 -619.71 607.77 C-620.44 607.97 -621.17 608.17 -621.92 608.38 C-627.79 610 -633.69 611.49 -639.6 612.96 C-640.4 613.16 -641.2 613.36 -642.02 613.56 C-646.1 614.58 -650.18 615.58 -654.26 616.58 C-655.79 616.96 -657.32 617.34 -658.86 617.71 C-659.56 617.89 -660.26 618.06 -660.99 618.23 C-664.66 619.14 -668.09 620.26 -671.59 621.7 C-672.47 621.85 -673.36 621.99 -674.27 622.14 C-677 622.6 -679.38 623.21 -682 624.04 C-688.06 625.88 -694.19 627.41 -700.34 628.95 C-709.86 631.38 -719.22 634.08 -728.56 637.14 C-736.01 639.57 -743.52 641.67 -751.09 643.66 C-756.01 644.96 -760.82 646.42 -765.64 648.06 C-767.87 648.8 -770.09 649.33 -772.4 649.77 C-774.62 650.19 -776.4 650.61 -778.41 651.64 C-781.37 653.09 -784.42 653.82 -787.59 654.7 C-790.45 655.63 -793.3 656.61 -796.15 657.58 C-801.8 659.49 -807.45 661.26 -813.21 662.83 C-817.76 664.09 -821.74 665.59 -825.87 667.83 C-828.65 669.24 -831.58 669.92 -834.59 670.7 C-836.07 671.13 -837.55 671.57 -839.02 672.02 C-839.87 672.27 -840.71 672.52 -841.59 672.79 C-844.54 673.69 -847.49 674.62 -850.44 675.55 C-856.65 677.5 -862.85 679.39 -869.16 681.03 C-870.91 681.52 -872.66 682.06 -874.39 682.64 C-878.12 683.88 -881.87 684.98 -885.65 686.08 C-887.16 686.52 -888.67 686.97 -890.18 687.41 C-892.88 688.2 -895.57 688.99 -898.27 689.78 C-903.83 691.43 -909.11 693.25 -914.37 695.71 C-917.68 697.19 -921.09 698.36 -924.51 699.57 C-927.38 700.63 -930.21 701.76 -933.05 702.92 C-940.45 705.95 -947.91 708.44 -955.59 710.7 C-961.05 712.42 -966.36 714.39 -971.67 716.54 C-983.7 721.34 -995.89 725.56 -1008.21 729.55 C-1011.04 730.47 -1013.88 731.4 -1016.71 732.33 C-1017.61 732.62 -1018.51 732.91 -1019.44 733.2 C-1023.87 734.66 -1027.61 736.24 -1031.59 738.7 C-1034.14 739.44 -1034.14 739.44 -1036.9 740.02 C-1042.03 741.22 -1046.9 742.79 -1051.84 744.64 C-1052.48 744.88 -1053.13 745.12 -1053.8 745.37 C-1057.14 746.64 -1060.32 748.05 -1063.48 749.71 C-1067.84 751.94 -1072.34 753.33 -1077.02 754.7 C-1082.69 756.38 -1088.06 758.27 -1093.43 760.74 C-1096.76 762.23 -1100.16 763.46 -1103.59 764.7 C-1105.46 765.4 -1107.33 766.09 -1109.2 766.79 C-1109.69 766.97 -1109.69 766.97 -1112.22 767.91 C-1132.54 775.5 -1132.54 775.5 -1141.71 779.67 C-1145.02 781.16 -1146.84 781.7 -1150.59 781.7 C-1150.59 782.36 -1150.59 783.02 -1150.59 783.7 C-1151.8 784.2 -1153 784.7 -1154.25 785.21 C-1163.1 788.87 -1171.77 792.67 -1180.3 797.04 C-1187.92 800.9 -1195.73 804.36 -1203.59 807.7 C-1207.27 809.33 -1210.93 811.01 -1214.59 812.7 C-1215.35 813.06 -1216.12 813.41 -1216.91 813.78 C-1247.53 828 -1247.53 828 -1252.59 833.7 C-1241.87 832.65 -1231.23 831.27 -1220.59 829.64 C-1220.01 829.55 -1220.01 829.55 -1217.1 829.11 C-1216.02 828.95 -1214.94 828.78 -1213.84 828.61 C-1212.87 828.46 -1211.91 828.31 -1210.91 828.15 C-1208.59 827.7 -1208.59 827.7 -1206.59 826.7 C-1204.32 826.43 -1202.05 826.18 -1199.77 825.95 C-1190.35 824.9 -1181.29 822.6 -1172.11 820.3 C-1168.7 819.49 -1165.26 818.86 -1161.81 818.25 C-1159.5 817.68 -1157.69 816.79 -1155.59 815.7 C-1153.66 815.31 -1151.72 814.98 -1149.77 814.7 C-1146.44 814.19 -1143.34 813.63 -1140.09 812.7 C-1137.04 811.83 -1134.21 811.3 -1131.09 810.83 C-1123.77 809.67 -1116.72 807.67 -1109.59 805.7 C-1108.25 805.36 -1106.92 805.03 -1105.59 804.7 C-1102.01 803.83 -1098.46 802.86 -1094.9 801.89 C-1083.66 798.87 -1072.33 796.12 -1060.95 793.71 C-1051.24 791.65 -1041.81 789.06 -1032.32 786.14 C-1028.27 784.89 -1024.19 783.77 -1020.09 782.7 C-1014.09 781.14 -1008.15 779.42 -1002.21 777.64 C-1001.39 777.4 -1000.57 777.15 -999.72 776.9 C-995.75 775.7 -991.8 774.45 -987.87 773.12 C-984.43 771.96 -980.99 770.98 -977.46 770.14 C-974.34 769.39 -971.26 768.61 -968.18 767.69 C-964.53 766.69 -960.95 766.05 -957.21 765.45 C-950.64 764.31 -944.62 762.44 -938.38 760.11 C-930.65 757.26 -922.74 755.2 -914.78 753.1 C-908.04 751.31 -901.35 749.49 -894.9 746.83 C-890.62 745.07 -886.28 743.5 -881.9 742.02 C-881.29 741.81 -881.29 741.81 -878.2 740.75 C-874.65 739.72 -871.25 739.17 -867.59 738.7 C-863.55 737.5 -859.64 735.99 -855.71 734.48 C-850.32 732.5 -844.95 731.07 -839.34 729.89 C-832.26 728.37 -825.31 726.56 -818.36 724.56 C-812.95 723.03 -807.52 721.75 -802.02 720.58 C-796.05 719.3 -790.33 717.81 -784.59 715.7 C-775.82 712.5 -766.77 710.55 -757.69 708.48 C-750.16 706.72 -743.04 704.58 -735.82 701.83 C-731.43 700.3 -726.98 699.31 -722.43 698.38 C-719.59 697.7 -719.59 697.7 -716.98 696.65 C-714.64 695.73 -712.83 695.39 -710.34 695.2 C-706.32 694.83 -702.5 694.1 -698.58 693.16 C-696.59 692.7 -696.59 692.7 -693.96 692.33 C-691.59 691.7 -691.59 691.7 -688.52 689.77 C-684.49 687.34 -680.51 686.91 -675.9 686.26 C-671.25 685.48 -666.81 684.15 -662.3 682.8 C-653.24 680.12 -644.1 677.82 -634.9 675.64 C-632.75 675.13 -630.6 674.62 -628.45 674.11 C-627.44 673.86 -626.42 673.62 -625.38 673.37 C-621.78 672.51 -618.18 671.61 -614.59 670.7 C-613.26 670.38 -611.94 670.06 -610.62 669.74 C-604.11 668.15 -597.68 666.5 -591.34 664.3 C-585.69 662.38 -585.69 662.38 -582.46 663.33 C-581.84 663.45 -581.22 663.58 -580.59 663.7 C-580.38 663.48 -580.38 663.48 -579.31 662.33 C-577.04 660.19 -575.12 659.82 -572.09 659.09 C-570.98 658.81 -569.88 658.54 -568.74 658.26 C-567.55 657.97 -566.37 657.68 -565.15 657.39 C-556.76 655.31 -548.45 653.13 -540.21 650.52 C-532.39 648.06 -524.55 646.38 -516.47 645 C-512.25 644.27 -508.54 643.41 -504.59 641.7 C-502.92 641.67 -501.25 641.66 -499.59 641.7 C-499.26 641.37 -498.93 641.04 -498.59 640.7 C-496.76 640.35 -494.92 640.05 -493.09 639.77 C-489.22 639.14 -485.36 638.51 -481.52 637.7 C-480.83 637.56 -480.14 637.41 -479.43 637.27 C-477.59 636.7 -477.59 636.7 -474.59 634.7 C-473.41 634.54 -472.23 634.37 -471.02 634.2 C-467.59 633.7 -467.59 633.7 -465.59 631.7 C-463.21 631.06 -463.21 631.06 -460.24 630.52 C-459.16 630.31 -458.08 630.11 -456.96 629.9 C-455.83 629.69 -454.69 629.48 -453.52 629.27 C-446.75 628.02 -440.24 626.71 -433.75 624.4 C-430.65 623.4 -427.51 622.83 -424.32 622.23 C-419 621.2 -413.74 619.93 -408.46 618.7 C-407.33 618.44 -406.21 618.18 -405.04 617.91 C-383.7 612.97 -383.7 612.97 -376.65 610.14 C-372.63 608.58 -368.87 608.14 -364.59 607.7 C-363.6 607.37 -362.61 607.04 -361.59 606.7 C-360.82 606.93 -360.06 607.16 -359.27 607.39 C-356.59 607.7 -356.59 607.7 -353.99 605.82 C-350.08 603.08 -346.12 602.7 -341.46 602.14 C-339.76 601.9 -338.07 601.66 -336.37 601.42 C-335.55 601.3 -334.73 601.18 -333.89 601.06 C-326.89 599.97 -320.24 598.05 -313.68 595.43 C-311.49 594.67 -309.37 594.22 -307.09 593.8 C-300.21 592.47 -293.46 590.68 -286.68 588.91 C-280.57 587.35 -274.5 586.15 -268.26 585.17 C-264.96 584.59 -261.8 583.66 -258.59 582.7 C-255.08 581.97 -251.55 581.37 -248.02 580.76 C-242.69 579.8 -242.69 579.8 -241.59 578.7 C-239.27 578.38 -236.95 578.19 -234.62 577.98 C-232.59 577.7 -232.59 577.7 -231.59 576.7 C-230.49 576.58 -229.4 576.46 -228.27 576.33 C-224.59 575.7 -224.59 575.7 -222.65 574.14 C-219.33 571.82 -216.58 572.39 -212.59 572.7 C-211.6 573.36 -210.61 574.02 -209.59 574.7 C-208.88 574.27 -208.18 573.84 -207.46 573.39 C-201.89 570.12 -196.97 568.15 -190.59 567.14 C-186.79 566.52 -183.11 565.88 -179.45 564.63 C-176.4 563.64 -173.91 563.47 -170.71 563.39 C-161.79 562.84 -153.08 560.14 -144.92 556.52 C-142.24 555.58 -140.56 555.66 -137.77 556.08 C-136.98 556.19 -136.19 556.3 -135.38 556.41 C-134.79 556.51 -134.2 556.6 -133.59 556.7 C-133.26 555.71 -132.93 554.72 -132.59 553.7 C-131.99 553.6 -131.4 553.49 -130.79 553.38 C-128.05 552.89 -125.32 552.39 -122.59 551.89 C-122.12 551.81 -122.12 551.81 -119.75 551.39 C-114.75 550.46 -110.18 549.29 -105.47 547.39 C-102.31 546.24 -99.08 545.72 -95.77 545.14 C-95.08 545.02 -94.39 544.89 -93.68 544.77 C-90.53 544.2 -87.37 543.67 -84.21 543.14 C-83.24 542.98 -82.27 542.81 -81.27 542.64 C-80.85 542.57 -80.85 542.57 -78.72 542.23 C-76.59 541.7 -76.59 541.7 -73.59 539.7 C-69.68 539.51 -66.47 539.5 -62.66 540.38 C-58.86 540.78 -57.46 539.94 -54.21 538.02 C-43.29 532.21 -31.35 530.56 -19.25 528.78 C-14.27 528.03 -9.57 526.99 -4.78 525.39 C-1.53 524.37 1.78 523.79 5.12 523.17 C7.41 522.7 7.41 522.7 10.73 521.64 C15.29 520.48 19.73 520.22 24.43 519.95 C27.69 519.68 30.28 519.33 33.16 517.74 C35.89 516.49 38.4 516.04 41.37 515.55 C42.54 515.36 43.7 515.16 44.91 514.95 C46.15 514.75 47.39 514.54 48.66 514.33 C57.61 512.79 66.36 511.09 75.14 508.74 C82.13 506.96 89.27 505.76 96.37 504.45 C101.82 503.44 107.08 502.23 112.41 500.7 C115.05 500.27 117.64 499.89 120.29 499.58 C120.99 499.49 121.68 499.41 122.4 499.32 C127.45 498.74 132.34 498.52 137.41 498.7 C137.52 498.38 137.52 498.38 138.04 496.74 C139.41 494.7 139.41 494.7 142.13 494.16 C143.19 494.14 144.26 494.11 145.35 494.08 C151.13 493.9 151.13 493.9 154.41 491.7 C156.69 491.23 156.69 491.23 159.34 490.92 C160.3 490.8 161.26 490.68 162.25 490.56 C163.26 490.44 164.26 490.32 165.29 490.2 C167.27 489.97 169.24 489.73 171.22 489.48 C171.66 489.43 171.66 489.43 173.87 489.17 C176.59 488.67 178.88 487.78 181.41 486.7 C195.18 482.56 209.17 479.99 223.43 478.23 C226.41 477.7 226.41 477.7 228.81 476.74 C232.24 475.38 235.74 474.81 239.35 474.2 C246.71 472.95 246.71 472.95 250.23 471.7 C255.81 469.95 261.65 469.54 267.45 468.85 C268.4 468.73 269.35 468.61 270.32 468.48 C271.18 468.38 272.04 468.28 272.92 468.17 C275.61 467.67 277.89 466.74 280.41 465.7 C282.99 465.25 285.51 464.88 288.1 464.58 C288.81 464.49 289.52 464.41 290.25 464.32 C294.97 463.78 299.59 463.58 304.35 463.7 C307.11 463.7 309.72 463.27 312.41 462.7 C312.41 462.04 312.41 461.38 312.41 460.7 C316.69 458.88 320.34 457.58 324.98 457.27 C333.19 456.64 341.09 453.93 348.98 451.69 C358.92 449.02 368.9 447.47 379.1 446.1 C380.22 445.94 381.33 445.79 382.48 445.63 C382.98 445.57 382.98 445.57 385.51 445.23 C388.61 444.67 391.44 443.73 394.41 442.7 C396.78 442.3 399.16 441.95 401.54 441.64 C408.12 440.78 408.12 440.78 410.47 440.14 C414.1 439.33 417.85 439.8 421.54 439.96 C424.91 439.66 425.77 438.7 428.41 436.7 C430.99 436.08 433.43 435.59 436.04 435.2 C436.79 435.08 437.53 434.96 438.3 434.83 C440.67 434.44 443.04 434.07 445.41 433.7 C454.48 432.28 463.48 430.79 472.41 428.64 C473.13 428.47 473.85 428.3 474.58 428.12 C477.41 427.44 480.24 426.75 483.07 426.04 C489.28 424.62 495.47 424.35 501.82 424.22 C506.54 424.06 510.23 423.21 514.6 421.41 C517.07 420.45 519.47 420.09 522.1 419.77 C527.15 419.07 532.12 418.19 537.11 417.19 C544.04 415.8 550.77 414.53 557.85 414.2 C562.43 413.97 566.3 413.27 570.66 411.89 C578.49 409.45 586.43 408.38 594.54 407.21 C601.15 406.24 607.65 405.08 614.16 403.58 C621.91 401.81 629.57 401.08 637.49 400.49 C644.31 399.93 650.39 398.61 656.96 396.64 C661.65 395.37 666.35 394.81 671.16 394.2 C674.12 393.75 676.81 393.08 679.66 392.2 C686.69 390.15 693.89 389.66 701.15 388.94 C704.64 388.58 708.12 388.15 711.6 387.7 C712.75 387.56 713.9 387.41 715.08 387.27 C718.41 386.7 718.41 386.7 721.88 385.69 C725.56 384.66 728.98 384.24 732.79 383.89 C743.48 382.78 753.93 380.5 764.44 378.3 C768.39 377.51 772.36 376.82 776.34 376.15 C778.41 375.7 778.41 375.7 779.41 374.7 C786.95 372.44 795.09 371.13 802.41 374.7 C805.2 378.13 805.54 380.39 805.41 384.7 C804.7 385.04 803.99 385.38 803.26 385.73 C802.34 386.17 801.42 386.62 800.48 387.08 C800.02 387.3 800.02 387.3 797.7 388.41 C795.41 389.7 795.41 389.7 794.41 391.7 C794.01 391.69 794.01 391.69 791.99 391.63 C784.22 391.51 777.03 392.17 769.41 393.7 C768.61 393.86 767.8 394.02 766.97 394.18 C763.23 394.91 759.5 395.68 755.77 396.46 C754.47 396.73 753.16 397 751.85 397.27 C750.65 397.51 749.46 397.76 748.22 398.02 C745.47 398.51 742.83 398.89 740.06 399.17 C735.17 399.68 730.41 400.63 725.6 401.64 C723.83 402 722.05 402.36 720.28 402.72 C719.44 402.89 718.59 403.06 717.73 403.24 C710.96 404.59 704.21 405.63 697.35 406.35 C690.91 407.03 684.79 407.99 678.54 409.7 C671.75 411.56 665.07 412.41 658.07 413.05 C653.23 413.5 648.57 414.15 643.82 415.21 C640.91 415.81 637.99 416.19 635.04 416.58 C627.43 417.63 619.94 419.15 612.42 420.69 C606.5 421.9 600.55 423 594.6 424.09 C592.85 424.43 591.1 424.79 589.37 425.26 C586.63 425.88 583.91 425.98 581.1 426.14 C576.24 426.49 572.08 427.29 567.41 428.7 C564.25 429.24 561.07 429.7 557.89 430.14 C555.26 430.57 552.74 431.07 550.15 431.67 C545.15 432.81 540.12 433.55 535.04 434.27 C533.28 434.51 531.52 434.77 529.77 435.02 C529 435.13 528.24 435.23 527.45 435.35 C525.41 435.7 525.41 435.7 522.41 436.7 C520.73 436.85 519.04 436.98 517.35 437.08 C512.49 437.47 508.29 438.57 503.67 440.08 C500.57 440.93 497.62 440.7 494.41 440.7 C492.59 441.12 490.78 441.59 488.98 442.08 C483.64 443.5 478.4 444.25 472.91 444.86 C464.79 445.82 456.82 447.53 448.82 449.2 C444.69 450.06 440.55 450.88 436.41 451.7 C434.81 452.02 433.2 452.35 431.59 452.67 C429.1 453.17 426.61 453.66 424.12 454.16 C420.09 454.97 416.06 455.77 412.03 456.59 C411.36 456.73 410.69 456.86 410.01 457 C408.23 457.36 406.45 457.73 404.68 458.09 C399.95 458.98 395.2 459.64 390.41 460.14 C386.61 460.61 383.1 461.62 379.41 462.7 C376.8 463.25 374.18 463.75 371.55 464.24 C369.41 464.7 369.41 464.7 367.41 465.7 C366.06 465.86 364.71 465.98 363.35 466.08 C360.06 466.41 357.21 467.01 354.1 468.14 C350.74 469.35 347.52 470.1 343.99 470.65 C337.14 471.75 330.31 472.93 323.48 474.14 C322.3 474.34 321.13 474.55 319.92 474.76 C313.01 475.98 306.18 477.39 299.36 479.04 C296.35 479.72 293.34 480.23 290.29 480.7 C286.32 481.32 282.58 482.18 278.73 483.33 C274.45 484.57 270.89 484.8 266.47 484.61 C263.15 484.76 260.41 486.35 257.41 487.7 C255.41 487.7 253.41 487.7 251.41 487.7 C249.94 488.1 248.49 488.54 247.04 489.02 C241.96 490.64 236.83 491.64 231.6 492.57 C227.01 493.4 222.46 494.32 217.91 495.33 C214.26 496.13 210.7 496.85 206.98 497.2 C203.41 497.7 203.41 497.7 200.43 499.11 C195.4 501.34 190.07 501.91 184.66 502.7 C178.6 503.61 172.67 504.55 166.77 506.27 C163.3 507.27 160.06 507.93 156.45 508.21 C150.73 508.66 145.38 510.1 139.85 511.58 C131.33 513.79 122.86 515.67 114.17 517.06 C110.67 517.66 107.23 518.39 103.77 519.18 C99.71 520.08 95.62 520.85 91.54 521.64 C86.25 522.68 81.02 523.72 75.85 525.27 C69.94 527 63.87 527.82 57.78 528.7 C56.99 528.82 56.2 528.93 55.38 529.05 C54.66 529.16 53.95 529.26 53.21 529.36 C51.41 529.7 51.41 529.7 49.41 530.7 C47.21 530.9 45.01 531.02 42.8 531.13 C40.41 531.7 40.41 531.7 38.03 533.71 C34.77 536.19 32.91 536.2 28.85 536.27 C12.13 536.99 12.13 536.99 8.41 540.7 C6.04 540.86 3.67 540.98 1.29 541.08 C-7.02 541.51 -7.02 541.51 -10.34 543.14 C-14.19 544.99 -17.77 545.55 -21.96 546.24 C-25.25 546.82 -28.38 547.77 -31.59 548.7 C-33.03 549.01 -34.47 549.3 -35.92 549.59 C-67.94 555.89 -67.94 555.89 -83.11 559.84 C-87.97 561.05 -92.88 561.97 -97.8 562.92 C-103 563.99 -108.11 565.3 -113.25 566.64 C-125.65 569.75 -138.19 571.86 -150.81 573.81 C-157.68 574.91 -164.08 576.26 -170.59 578.7 C-179.37 581.7 -187.86 584.2 -197.11 585.34 C-199.59 585.7 -199.59 585.7 -201.59 586.7 C-203.98 586.94 -206.38 587.08 -208.79 587.23 C-211.64 587.71 -213.92 588.71 -216.55 589.9 C-220.65 591.52 -224.98 592.33 -229.27 593.27 C-230.26 593.48 -231.24 593.7 -232.25 593.93 C-238.04 595.2 -243.83 596.29 -249.69 597.18 C-255.36 598.2 -260.91 599.72 -266.49 601.16 C-270.01 602.07 -273.55 602.95 -277.09 603.83 C-278.33 604.14 -279.58 604.45 -280.87 604.77 C-282.09 605.08 -283.32 605.39 -284.59 605.7 C-285.24 605.87 -285.89 606.04 -286.56 606.21 C-292.33 607.69 -298.15 608.81 -304 609.92 C-307.31 610.64 -310.39 611.62 -313.59 612.7 C-314.76 612.87 -315.94 613.03 -317.15 613.2 C-320.36 613.67 -322.61 614.5 -325.59 615.7 C-329.83 616.83 -334.01 617.64 -338.39 618.11 C-342.61 618.62 -346.44 619.78 -350.46 621.14 C-355.67 622.84 -360.75 624.23 -366.16 625.17 C-370.04 626.02 -373.72 627.42 -377.43 628.8 C-380.05 629.55 -382.22 629.92 -384.9 630.18 C-389.61 630.63 -393.94 631.74 -398.46 633.08 C-399.25 633.3 -400.04 633.53 -400.85 633.76 C-404.11 634.69 -407.37 635.64 -410.63 636.59 C-416.5 638.26 -422.4 639.44 -428.4 640.51 C-434.37 641.6 -440.15 643.12 -446 644.73 C-449.35 645.64 -452.7 646.44 -456.09 647.2 C-468.64 650.05 -481.02 653.64 -493.4 657.15 C-503.38 659.97 -513.39 662.49 -523.52 664.64 C-530.04 666.05 -536.36 667.79 -542.71 669.83 C-546.14 670.87 -549.56 671.56 -553.08 672.21 C-559.12 673.39 -565.08 675.02 -571.02 676.64 C-578.93 678.81 -586.83 680.67 -594.89 682.22 C-598.51 682.94 -601.92 683.76 -605.36 685.12 C-610.83 687.27 -616.52 688.58 -622.21 690.02 C-624.62 690.63 -627.02 691.24 -629.43 691.86 C-630.63 692.17 -631.83 692.47 -633.06 692.79 C-639.17 694.37 -645.26 696.05 -651.34 697.75 C-656.03 699.05 -660.72 700.2 -665.48 701.23 C-668.62 701.94 -671.73 702.79 -674.84 703.64 C-680.78 705.26 -686.76 706.69 -692.78 707.99 C-695.59 708.7 -695.59 708.7 -698.09 709.71 C-700.84 710.8 -703.5 711.41 -706.4 712.02 C-711.46 713.15 -716.4 714.5 -721.34 716.08 C-722 716.29 -722.67 716.5 -723.36 716.72 C-724.73 717.16 -726.11 717.6 -727.49 718.04 C-737.65 721.26 -747.7 724.13 -758.22 725.93 C-761.59 726.7 -761.59 726.7 -764.92 728.14 C-769.24 729.98 -773.53 731.06 -778.09 732.14 C-779.86 732.57 -781.64 733.01 -783.42 733.44 C-784.3 733.65 -785.17 733.87 -786.07 734.08 C-796.2 736.58 -806.34 739.22 -816.22 742.61 C-820.73 744.08 -825.28 745.35 -829.84 746.64 C-849.14 752.1 -849.14 752.1 -853.25 753.81 C-856.41 755.02 -859.56 755.43 -862.9 755.95 C-869.1 757.03 -874.66 758.72 -880.52 761.08 C-891.67 765.45 -903.38 768.36 -914.88 771.63 C-919.58 772.99 -924.24 774.45 -928.9 775.93 C-932.1 776.85 -935.29 777.24 -938.59 777.7 C-940.3 778.44 -942.01 779.18 -943.71 779.93 C-946.56 781.1 -949.48 781.83 -952.46 782.58 C-960.9 784.75 -969.24 787.21 -977.59 789.7 C-978.45 789.96 -979.31 790.22 -980.19 790.48 C-982.89 791.28 -985.58 792.09 -988.27 792.89 C-989.11 793.14 -989.95 793.39 -990.81 793.65 C-995.09 794.93 -999.34 796.29 -1003.59 797.7 C-1010.52 799.79 -1017.45 801.73 -1024.54 803.21 C-1026.62 803.71 -1028.57 804.36 -1030.59 805.08 C-1037.1 807.34 -1043.86 808.7 -1050.56 810.24 C-1058.63 812.09 -1066.5 814.28 -1074.38 816.79 C-1080.26 818.65 -1086.19 820.18 -1092.18 821.61 C-1095.99 822.53 -1099.77 823.57 -1103.55 824.6 C-1112.36 826.98 -1121.27 828.85 -1130.21 830.71 C-1132.28 831.14 -1134.36 831.58 -1136.43 832.02 C-1137.64 832.27 -1138.85 832.52 -1140.09 832.78 C-1143.79 833.76 -1147.09 835.17 -1150.59 836.7 C-1152.88 837.33 -1152.88 837.33 -1154.91 837.7 C-1155.68 837.84 -1156.45 837.99 -1157.25 838.14 C-1158.06 838.28 -1158.87 838.43 -1159.71 838.58 C-1167.13 839.98 -1174.49 841.56 -1181.84 843.33 C-1182.69 843.53 -1183.55 843.74 -1184.43 843.95 C-1188.03 844.83 -1191.62 845.71 -1195.21 846.66 C-1201.17 848.15 -1207.22 849.23 -1213.26 850.36 C-1215.38 850.76 -1217.51 851.17 -1219.63 851.58 C-1226.43 852.87 -1233.16 853.97 -1240.07 854.49 C-1244.35 854.85 -1248.59 855.55 -1252.84 856.2 C-1261.43 857.47 -1269.9 858.38 -1278.59 858.7 C-1279.25 858.74 -1279.91 858.77 -1280.6 858.8 C-1282.63 858.9 -1284.67 858.96 -1286.71 859.02 C-1287.91 859.05 -1289.11 859.09 -1290.34 859.13 C-1294.23 858.62 -1295.82 857.43 -1298.59 854.7 C-1299.27 853.38 -1299.94 852.05 -1300.59 850.7 C-1301.25 850.27 -1301.92 849.83 -1302.61 849.38 C-1304.59 847.7 -1304.59 847.7 -1305.19 845.47 C-1305.24 839.65 -1304.43 836.43 -1300.39 832.18 C-1298.24 830.42 -1295.99 829.09 -1293.59 827.7 C-1291.56 826.48 -1289.54 825.25 -1287.52 824.02 C-1287.24 823.84 -1287.24 823.84 -1285.8 822.96 C-1282.06 820.67 -1278.48 818.23 -1274.9 815.7 C-1267.95 811 -1260.41 807.9 -1252.72 804.65 C-1249.9 803.4 -1247.16 802 -1244.42 800.57 C-1242.5 799.66 -1240.62 799.04 -1238.59 798.45 C-1234.02 797.02 -1229.89 794.94 -1225.65 792.77 C-1220.66 790.22 -1215.71 787.82 -1210.47 785.82 C-1206.33 784.21 -1202.24 782.49 -1198.15 780.77 C-1197.31 780.41 -1196.47 780.06 -1195.61 779.7 C-1191.39 777.92 -1187.22 776.09 -1183.09 774.14 C-1177.43 771.52 -1171.58 769.47 -1165.71 767.37 C-1160.87 765.61 -1156.23 763.68 -1151.59 761.45 C-1146.93 759.22 -1142.47 757.78 -1137.47 756.54 C-1130.81 754.61 -1124.5 751.53 -1118.22 748.6 C-1112.38 745.89 -1106.36 743.91 -1100.23 741.95 C-1096.59 740.7 -1093.11 739.24 -1089.59 737.7 C-1087.76 737.02 -1085.93 736.35 -1084.09 735.7 C-1081 734.6 -1078.02 733.46 -1075.02 732.14 C-1072.18 730.95 -1069.48 730.05 -1066.52 729.2 C-1063.61 728.36 -1061.19 727.51 -1058.46 726.14 C-1055.61 724.72 -1052.93 724.05 -1049.85 723.31 C-1045.89 722.25 -1042.1 720.78 -1038.27 719.33 C-1036.6 718.7 -1034.92 718.08 -1033.25 717.45 C-1032.85 717.3 -1032.85 717.3 -1030.82 716.54 C-1027.16 715.17 -1023.49 713.85 -1019.81 712.53 C-1018.27 711.96 -1016.74 711.35 -1015.23 710.71 C-1012.08 709.51 -1008.92 708.71 -1005.65 707.89 C-987.23 703.13 -987.23 703.13 -980.59 698.7 C-978.64 698.24 -976.69 697.78 -974.74 697.33 C-972.6 696.71 -970.9 695.9 -968.96 694.83 C-964.19 692.29 -959.11 691.06 -953.91 689.64 C-950.73 688.74 -947.7 687.68 -944.63 686.46 C-942.44 685.65 -940.24 684.98 -938.01 684.33 C-932.67 682.74 -927.37 681.03 -922.09 679.27 C-921.21 678.98 -920.34 678.69 -919.44 678.4 C-915.22 676.99 -911.07 675.52 -906.96 673.83 C-899.78 670.9 -892.39 668.57 -885.02 666.14 C-883.56 665.65 -882.09 665.17 -880.62 664.68 C-877.83 663.76 -875.03 662.83 -872.24 661.91 C-869.31 660.94 -866.38 659.96 -863.45 658.97 C-860.09 657.85 -856.7 656.88 -853.27 655.95 C-847.57 654.35 -842.03 652.47 -836.46 650.45 C-826.93 647.02 -817.26 644.23 -807.49 641.54 C-802.24 640.09 -797.08 638.57 -791.97 636.65 C-785.48 634.22 -778.83 632.63 -772.1 630.99 C-766.51 629.59 -761.29 627.86 -755.97 625.64 C-752.24 624.17 -748.41 623.22 -744.52 622.27 C-742.86 621.84 -741.2 621.42 -739.54 620.99 C-739.13 620.89 -739.13 620.89 -737.04 620.35 C-727.05 617.72 -717.17 614.61 -707.32 611.5 C-704.75 610.75 -702.21 610.22 -699.59 609.7 C-686.35 606.38 -686.35 606.38 -680.09 604.2 C-674.39 602.23 -668.54 600.78 -662.71 599.26 C-660.55 598.69 -658.39 598.12 -656.24 597.55 C-641.12 593.53 -625.98 589.55 -610.71 586.14 C-604.9 584.83 -599.19 583.23 -593.46 581.61 C-588.42 580.19 -583.36 578.88 -578.27 577.64 C-573.61 576.51 -569.03 575.25 -564.46 573.77 C-556.76 571.33 -548.89 569.67 -541 567.92 C-531.05 565.7 -521.19 563.16 -511.35 560.44 C-500.15 557.35 -488.98 554.69 -477.55 552.59 C-467.1 550.65 -456.8 548.71 -446.65 545.51 C-439.13 543.17 -431.45 541.69 -423.74 540.14 C-416.81 538.73 -409.94 537.05 -403.09 535.33 C-378.06 529.03 -378.06 529.03 -369.9 527.7 C-364.43 526.79 -359.18 525.2 -353.86 523.67 C-347.05 521.74 -340.18 520.32 -333.22 519.05 C-332.43 518.9 -331.63 518.75 -330.82 518.6 C-330.12 518.47 -329.42 518.35 -328.7 518.22 C-326.59 517.7 -326.59 517.7 -324.15 516.71 C-321.53 515.68 -319.16 515.17 -316.38 514.74 C-315.4 514.58 -314.42 514.42 -313.41 514.25 C-311.38 513.93 -309.34 513.61 -307.31 513.29 C-301.93 512.41 -296.98 511.25 -291.86 509.42 C-288.46 508.35 -285.01 507.79 -281.5 507.19 C-276.34 506.32 -271.22 505.28 -266.09 504.27 C-265.04 504.06 -263.98 503.86 -262.9 503.65 C-257.91 502.66 -252.99 501.58 -248.1 500.2 C-242.1 498.51 -236.03 497.38 -229.9 496.27 C-222.53 494.89 -215.21 493.48 -207.96 491.58 C-202.35 490.11 -196.75 488.94 -191.04 487.91 C-182.33 486.32 -173.69 484.37 -165.04 482.46 C-159.07 481.15 -153.09 479.84 -147.12 478.54 C-145.09 478.09 -143.06 477.65 -141.03 477.2 C-93.52 466.8 -93.52 466.8 -72.17 463.08 C-66.21 462.04 -60.31 460.81 -54.41 459.53 C-50.37 458.66 -46.33 457.8 -42.28 456.95 C-40.86 456.65 -39.44 456.35 -38.02 456.05 C-35.85 455.59 -33.69 455.14 -31.52 454.68 C-29.38 454.23 -27.24 453.78 -25.09 453.32 C-23.84 453.06 -22.59 452.8 -21.3 452.53 C-18.72 451.95 -16.17 451.36 -13.61 450.71 C-9.65 449.7 -5.66 448.84 -1.66 448.01 C-0.19 447.7 1.28 447.4 2.75 447.09 C5.03 446.61 7.32 446.13 9.6 445.66 C11.83 445.2 14.06 444.73 16.28 444.26 C16.97 444.12 17.65 443.98 18.36 443.83 C23.19 442.82 23.19 442.82 25.41 441.7 C27.18 441.4 28.96 441.14 30.74 440.91 C31.84 440.75 32.94 440.6 34.07 440.45 C35.26 440.28 36.44 440.12 37.66 439.95 C47.36 438.57 56.86 436.85 66.38 434.57 C73.91 432.77 81.47 431.35 89.1 430.05 C93.98 429.2 98.66 428.13 103.41 426.7 C105.14 426.3 106.87 425.93 108.6 425.58 C109.42 425.41 110.24 425.24 111.08 425.07 C113.41 424.7 113.41 424.7 117.41 424.7 C117.08 423.81 116.74 422.91 116.39 421.98 C112.97 412.57 111.26 403.66 110.41 393.7 C110.29 392.41 110.17 391.11 110.04 389.78 C109.4 381.96 109.47 374.49 110.41 366.7 C106.31 370.11 102.48 373.5 99.1 377.64 C95.67 381.68 91.78 384.54 87.45 387.56 C84.15 389.89 80.97 392.34 77.79 394.83 C68.58 401.92 60.41 406.76 49.41 410.7 C48.06 411.29 46.71 411.87 45.35 412.45 C35.26 416.1 26.16 414.71 16.41 410.7 C12.03 408.52 8.7 405.31 5.41 401.7 C5.12 401.42 5.12 401.42 3.62 400.02 C-3.14 392.87 -3.56 384.14 -3.59 374.7 C-3.34 370.55 -2.61 366.73 -1.59 362.7 C-1.32 361.57 -1.04 360.44 -0.77 359.27 C1.76 349.24 5.05 339.48 8.41 329.7 C5.99 332.12 3.58 334.53 1.23 337.02 C-0.59 338.7 -0.59 338.7 -2.59 338.7 C-2.59 339.36 -2.59 340.02 -2.59 340.7 C-3.88 341.97 -3.88 341.97 -5.77 343.52 C-9.79 346.93 -13.55 350.54 -17.27 354.27 C-17.82 354.81 -18.37 355.35 -18.93 355.91 C-21.55 358.54 -24.03 361.2 -26.36 364.11 C-27.09 364.96 -27.83 365.82 -28.59 366.7 C-29.25 366.7 -29.91 366.7 -30.59 366.7 C-30.79 367.24 -30.99 367.78 -31.2 368.34 C-33.16 371.68 -35.92 374.02 -38.77 376.58 C-39.07 376.85 -39.07 376.85 -40.56 378.2 C-42.23 379.71 -43.91 381.21 -45.59 382.7 C-46.29 383.33 -46.99 383.96 -47.72 384.61 C-51.1 387.56 -54.62 390.28 -58.23 392.94 C-60.05 394.3 -61.84 395.69 -63.63 397.09 C-64.18 397.52 -64.73 397.95 -65.29 398.4 C-66.88 399.64 -68.46 400.89 -70.05 402.14 C-73.53 404.76 -77.24 406.96 -80.99 409.17 C-83.48 410.64 -85.93 412.16 -88.38 413.7 C-101.2 421.7 -113.6 427.96 -128.59 430.7 C-129.15 430.88 -129.72 431.05 -130.31 431.23 C-138.87 433.01 -150.83 433.12 -158.59 428.7 C-160.47 427.3 -162.19 425.84 -163.88 424.2 C-165.59 422.7 -165.59 422.7 -168.06 421.3 C-175.88 416.34 -179.03 407.04 -181.13 398.48 C-182.56 391.97 -182.9 385.74 -182.84 379.08 C-182.83 378.04 -182.83 377 -182.82 375.92 C-182.73 367.4 -181.97 359.12 -180.59 350.7 C-181.06 351.12 -181.06 351.12 -183.46 353.2 C-187.27 356.48 -191.2 359.58 -195.16 362.68 C-197.59 364.7 -197.59 364.7 -199.92 367.13 C-203.08 370.18 -206.46 372.46 -210.15 374.83 C-211.46 375.68 -212.78 376.54 -214.09 377.4 C-214.7 377.8 -215.31 378.19 -215.94 378.6 C-217.28 379.5 -218.57 380.47 -219.84 381.47 C-222.88 383.62 -224.99 383.31 -228.59 382.7 C-231.33 380.7 -233.63 378.48 -235.59 375.7 C-235.59 374.71 -235.59 373.72 -235.59 372.7 C-236.02 373.1 -236.46 373.5 -236.91 373.91 C-239.65 376.35 -242.08 378.46 -245.4 380.08 C-248.52 381.67 -250.73 383.4 -253.4 385.64 C-258.73 389.99 -263.8 393.08 -270.65 394.2 C-274.08 393.62 -276.44 392.32 -279.36 390.48 C-283.94 388.88 -287.92 390.41 -292.21 392.27 C-293.48 392.93 -294.76 393.59 -296.02 394.27 C-297.42 394.99 -298.82 395.71 -300.22 396.43 C-300.93 396.8 -301.65 397.17 -302.38 397.56 C-306.04 399.46 -309.72 401.34 -313.4 403.2 C-313.74 403.38 -313.74 403.38 -315.45 404.26 C-318.36 405.74 -320.27 406.7 -323.59 406.7 C-323.59 407.36 -323.59 408.02 -323.59 408.7 C-331 412.32 -338.46 415.1 -346.3 417.59 C-349.59 418.7 -349.59 418.7 -351.49 419.71 C-353.82 420.81 -355.89 421.26 -358.43 421.7 C-359.35 421.87 -360.26 422.03 -361.21 422.2 C-363.13 422.54 -365.05 422.87 -366.96 423.2 C-367.88 423.37 -368.8 423.53 -369.74 423.7 C-370.58 423.85 -371.41 423.99 -372.27 424.14 C-374.62 424.71 -376.46 425.58 -378.59 426.7 C-380.26 427.11 -381.95 427.46 -383.65 427.77 C-386.42 428.27 -388.91 428.81 -391.59 429.7 C-394.65 430.01 -397.71 430.21 -400.77 430.42 C-403.59 430.7 -403.59 430.7 -406.59 431.7 C-411.04 431.91 -415.19 431.42 -419.59 430.7 C-420.48 430.59 -421.38 430.48 -422.3 430.37 C-426.87 429.72 -429.96 429.12 -433.84 426.52 C-436.14 422.81 -435.53 420.86 -434.59 416.7 C-434.92 416.04 -435.25 415.38 -435.59 414.7 C-435.29 408.67 -434.51 406.39 -430.59 401.7 C-429.35 399.82 -428.14 397.93 -426.96 396.02 C-423.8 390.92 -423.8 390.92 -421.59 388.7 C-418.48 382.49 -418.48 382.49 -418.86 379.72 C-419.65 377.52 -420.67 375.78 -421.96 373.83 C-431.82 358.89 -432.52 342.06 -433.59 324.7 C-438.32 328.34 -441.67 332.14 -445.09 337.02 C-446.04 338.35 -447 339.68 -447.96 341.01 C-448.83 342.24 -449.71 343.47 -450.59 344.7 C-452.54 347.43 -454.5 350.08 -456.59 352.7 C-457.25 352.7 -457.91 352.7 -458.59 352.7 C-458.81 353.4 -459.04 354.11 -459.27 354.83 C-460.86 358.3 -463.07 360.88 -465.59 363.7 C-466.69 364.95 -467.8 366.2 -468.9 367.45 C-469.49 368.12 -470.07 368.78 -470.68 369.47 C-473.54 372.82 -476.21 376.3 -478.89 379.8 C-479.45 380.43 -480.01 381.06 -480.59 381.7 C-481.25 381.7 -481.91 381.7 -482.59 381.7 C-482.92 382.69 -483.25 383.68 -483.59 384.7 C-485.22 386.4 -486.89 388.06 -488.59 389.7 C-490.22 391.51 -491.84 393.32 -493.46 395.14 C-497.28 399.37 -501.21 403.07 -505.59 406.7 C-505.92 407.36 -506.25 408.02 -506.59 408.7 C-507.25 408.7 -507.91 408.7 -508.59 408.7 C-508.59 409.36 -508.59 410.02 -508.59 410.7 C-510.27 412.01 -512.01 413.25 -513.77 414.45 C-520.04 418.89 -520.04 418.89 -522.27 421.77 C-527.4 428.28 -534.21 433.11 -540.95 437.84 C-543.59 439.7 -543.59 439.7 -545.5 441.32 C-551.35 445.89 -558.49 445.78 -565.59 445.05 C-571.53 444.02 -577.42 441.17 -581.41 436.62 C-582.59 434.7 -582.59 434.7 -582.59 432.7 C-583.25 432.7 -583.91 432.7 -584.59 432.7 C-586.24 429.73 -587.89 426.76 -589.59 423.7 C-589.99 424.14 -589.99 424.14 -592.04 426.37 C-593.11 427.54 -594.19 428.72 -595.27 429.89 C-595.8 430.47 -596.33 431.05 -596.88 431.64 C-600.04 435.08 -603.26 438.42 -606.59 441.7 C-607.41 442.54 -608.23 443.37 -609.08 444.23 C-621.28 456.27 -635.73 464.44 -650.67 472.61 C-652.35 473.57 -653.98 474.63 -655.59 475.7 C-664.84 477.71 -672.51 476.7 -680.59 471.7 C-685.57 467.46 -688.37 462.78 -690.59 456.7 C-690.91 456.11 -691.23 455.51 -691.57 454.9 C-692.87 452.1 -693.44 449.34 -694.09 446.33 C-695.02 442.02 -695.98 437.82 -697.59 433.7 C-698.25 433.37 -698.91 433.04 -699.59 432.7 C-698.94 429.69 -697.94 427.19 -696.52 424.45 C-696.16 423.75 -695.8 423.04 -695.43 422.31 C-695.15 421.78 -694.87 421.25 -694.59 420.7 C-695.31 421.1 -696.03 421.49 -696.77 421.89 C-699.59 422.7 -699.59 422.7 -702.4 421.33 C-703.12 420.79 -703.84 420.26 -704.59 419.7 C-704.21 418.3 -703.81 416.91 -703.4 415.52 C-703.18 414.74 -702.96 413.96 -702.73 413.16 C-701.59 410.7 -701.59 410.7 -699.1 408.61 C-695.37 404.29 -695.27 399.87 -694.59 394.33 C-693.17 384.56 -690.99 375.98 -687.59 366.7 C-686.68 363.9 -685.82 361.08 -684.96 358.27 C-680.27 343.16 -680.27 343.16 -675.59 336.7 C-672.29 337.36 -668.99 338.02 -665.59 338.7 C-665.29 338.28 -665.29 338.28 -663.77 336.14 C-663.61 335.9 -663.61 335.9 -662.75 334.7 C-661.42 332.42 -660.47 330.05 -659.45 327.62 C-657.94 324.29 -656.05 321.2 -654.15 318.08 C-653.96 317.76 -653.96 317.76 -652.99 316.13 C-650.76 312.44 -648.49 308.92 -645.59 305.7 C-644.93 305.7 -644.27 305.7 -643.59 305.7 C-643.59 305.04 -643.59 304.38 -643.59 303.7 C-642.22 302.71 -640.84 301.74 -639.41 300.86 C-637.59 299.7 -637.59 299.7 -635.79 298.33 C-630.25 294.3 -625.34 293.74 -618.59 294.7 C-613.25 296.91 -609.42 301.01 -606.89 306.16 C-606.4 307.42 -605.92 308.68 -605.46 309.95 C-605.21 310.62 -604.96 311.3 -604.7 311.99 C-603.99 313.89 -603.29 315.8 -602.59 317.7 C-602.24 318.49 -601.89 319.28 -601.54 320.09 C-595.74 334.04 -600.33 349.05 -605.59 362.34 C-612.18 378.05 -624.16 395.25 -638.59 404.7 C-639.25 404.7 -639.91 404.7 -640.59 404.7 C-640.59 405.36 -640.59 406.02 -640.59 406.7 C-642.42 408.4 -644.24 409.93 -646.21 411.45 C-646.79 411.9 -647.36 412.34 -647.96 412.8 C-654.87 417.94 -662.44 420.99 -670.59 423.7 C-672.34 432.04 -672.91 442.03 -668.59 449.7 C-666.43 451.19 -666.43 451.19 -663.59 451.7 C-660.89 450.74 -658.69 449.75 -656.21 448.39 C-655.51 448.02 -654.81 447.65 -654.09 447.27 C-651.91 446.1 -649.74 444.91 -647.59 443.7 C-646.94 443.35 -646.29 442.99 -645.62 442.63 C-631.06 434.59 -618.64 425.04 -608.59 411.7 C-606.99 409.78 -605.38 407.87 -603.77 405.95 C-598.83 399.9 -595.52 393.97 -592.59 386.7 C-592.34 386.1 -592.09 385.49 -591.84 384.87 C-590.35 381.07 -589.18 377.28 -588.15 373.33 C-586.97 368.86 -585.46 364.69 -583.68 360.43 C-582.41 357.26 -581.32 354.05 -580.21 350.83 C-573.88 333.1 -573.88 333.1 -568.61 329.88 C-565.37 328.62 -563.03 328.46 -559.59 328.7 C-559.59 330.68 -559.59 332.66 -559.59 334.7 C-559.92 334.87 -559.92 334.87 -561.59 335.7 C-561.95 338.03 -562.28 340.37 -562.59 342.7 C-563.25 344.7 -563.92 346.7 -564.59 348.7 C-571.02 371.69 -575.85 395.68 -563.59 417.7 C-562.93 418.03 -562.27 418.36 -561.59 418.7 C-561.59 419.36 -561.59 420.02 -561.59 420.7 C-556.06 418.66 -551.67 415.8 -546.92 412.32 C-544.59 410.7 -544.59 410.7 -542.41 409.68 C-540.59 408.7 -540.59 408.7 -538.59 405.7 C-537.6 405.7 -536.61 405.7 -535.59 405.7 C-535.34 405.11 -535.1 404.52 -534.85 403.91 C-533.35 401.29 -531.78 400.14 -529.34 398.39 C-526.35 396.17 -523.89 394.06 -521.59 391.14 C-518.75 387.6 -515.43 385.51 -511.62 383.11 C-509.04 381.33 -507.41 379.24 -505.59 376.7 C-503.94 375.02 -502.27 373.35 -500.59 371.7 C-499.84 370.96 -499.1 370.22 -498.34 369.45 C-496.71 367.83 -495.07 366.22 -493.41 364.63 C-486.46 357.92 -486.46 357.92 -484.34 353.95 C-482.46 350.46 -480.48 348.39 -477.59 345.7 C-476.39 344.52 -475.21 343.33 -474.02 342.14 C-472.22 340.34 -470.43 338.55 -468.57 336.8 C-466.45 334.55 -464.94 332.29 -463.34 329.64 C-457.2 319.87 -450.67 311.5 -442.41 303.49 C-440.09 301.2 -437.98 298.89 -435.9 296.39 C-431.77 291.55 -426.19 285.52 -419.59 284.7 C-416.9 285.89 -416.9 285.89 -414.59 287.7 C-414.22 289.03 -413.89 290.36 -413.59 291.7 C-413.28 291.86 -413.28 291.86 -411.71 292.64 C-408.75 294.12 -407.94 295.72 -406.59 298.7 C-405.88 304.81 -407.67 311.09 -409.16 317 C-412.27 329.53 -411.02 343.97 -405.59 355.7 C-403.9 358.2 -403.9 358.2 -402.59 359.7 C-398.13 358.12 -395.81 354.65 -392.96 351.08 C-391.21 348.9 -389.44 346.8 -387.59 344.7 C-386.93 344.7 -386.27 344.7 -385.59 344.7 C-385.59 344.04 -385.59 343.38 -385.59 342.7 C-384.84 342.29 -384.1 341.88 -383.34 341.45 C-379.97 339.31 -378.71 337.06 -376.59 333.7 C-373.19 329.42 -369.46 325.55 -365.59 321.7 C-364.35 320.46 -363.12 319.21 -361.89 317.97 C-360.56 316.63 -359.23 315.29 -357.9 313.95 C-357.22 313.27 -356.55 312.58 -355.85 311.88 C-355.2 311.23 -354.55 310.58 -353.89 309.91 C-353.59 309.61 -353.59 309.61 -352.11 308.11 C-350.59 306.7 -350.59 306.7 -348.59 305.7 C-348.31 305.1 -348.03 304.5 -347.74 303.88 C-346.29 301.14 -344.54 299.82 -342.09 297.95 C-341.29 297.34 -340.5 296.73 -339.68 296.09 C-337.59 294.7 -337.59 294.7 -335.59 294.7 C-335.26 293.71 -334.93 292.72 -334.59 291.7 C-327.35 283.53 -317.51 275.93 -307.61 271.32 C-307.11 271.08 -307.11 271.08 -304.59 269.89 C-304.12 269.69 -304.12 269.69 -301.77 268.68 C-298.82 266.01 -298.91 264.05 -298.69 260.18 C-298.65 259.37 -298.62 258.55 -298.59 257.7 C-298.45 256.15 -298.31 254.6 -298.16 253.05 C-298.12 252.65 -298.12 252.65 -297.94 250.66 C-296.64 236.66 -294.53 223.25 -290.49 209.76 C-288.95 204.55 -287.85 199.34 -286.98 193.98 C-285.74 186.58 -284.25 180.31 -280.84 173.55 C-279.33 170.13 -278.42 166.64 -277.52 163.02 C-276.3 158.13 -274.94 153.91 -272.52 149.5 C-269.24 143.2 -267.93 136.11 -266.53 129.21 C-262.53 114.33 -253.83 90.74 -241.59 80.7 C-240.6 80.7 -239.61 80.7 -238.59 80.7 C-238.59 80.04 -238.59 79.38 -238.59 78.7 C-229.86 74.94 -229.86 74.94 -224.59 76.7 C-211.79 82.7 -206.79 93.79 -201.57 106.16 C-200.14 109.53 -198.5 112.58 -196.59 115.7 C-195.88 117.75 -195.88 117.75 -195.34 119.89 C-193.91 124.95 -192.03 129.76 -190.09 134.64 C-187.77 140.45 -185.82 146.15 -184.32 152.23 C-183.53 154.88 -182.45 157.17 -181.21 159.64 C-174.25 174.32 -168.32 196.91 -173.59 212.7 C-174.91 212.37 -176.23 212.04 -177.59 211.7 C-177.92 209.95 -178.26 208.2 -178.59 206.45 C-178.77 205.48 -178.96 204.5 -179.15 203.5 C-179.59 200.7 -179.59 200.7 -179.59 196.7 C-181.24 197.69 -182.89 198.68 -184.59 199.7 C-188.79 193.1 -190.67 188.46 -191.02 180.64 C-191.33 174.95 -192.09 172.27 -195.59 167.7 C-196.44 165.64 -197.25 163.55 -198.02 161.45 C-199.54 157.36 -201.13 153.45 -203.15 149.58 C-205.4 145.26 -207.05 140.86 -208.59 136.25 C-209.67 133.5 -211.02 131.2 -212.59 128.7 C-217.22 120.94 -221.37 113.42 -224.58 104.93 C-225.59 102.7 -225.59 102.7 -227.59 101.7 C-230.9 104.49 -232.71 108.19 -234.71 111.95 C-235.1 112.69 -235.49 113.42 -235.89 114.17 C-239.62 121.4 -242.57 128.89 -245.4 136.51 C-247.11 141.08 -248.91 145.45 -251.17 149.78 C-253.62 154.57 -255.15 159.33 -256.52 164.52 C-257.03 166.37 -257.54 168.23 -258.05 170.09 C-258.18 170.55 -258.18 170.55 -258.82 172.92 C-259.55 175.56 -260.31 178.19 -261.09 180.82 C-276.59 233.09 -276.59 233.09 -276.59 258.7 C-276.3 258.7 -276.3 258.7 -274.86 258.71 C-266.4 259.11 -257.95 261.76 -251.57 267.53 C-241.22 280.44 -241.3 297 -242.59 312.7 C-244.25 322.52 -247.74 332.12 -252.58 340.81 C-253.59 342.7 -253.59 342.7 -254.46 345.89 C-255.67 348.91 -256.79 349.97 -259.15 352.14 C-261.75 354.56 -263.05 356.08 -263.52 359.64 C-263.54 360.65 -263.56 361.66 -263.59 362.7 C-261.65 361.6 -259.71 360.5 -257.77 359.39 C-256.69 358.78 -255.62 358.16 -254.5 357.53 C-251.59 355.7 -251.59 355.7 -249.89 353.97 C-248.59 352.7 -248.59 352.7 -245.59 352.7 C-245.32 352.11 -245.05 351.52 -244.78 350.91 C-243.55 348.64 -242.3 347.18 -240.46 345.39 C-239.84 344.78 -239.22 344.18 -238.58 343.55 C-236.62 341.73 -234.59 340.03 -232.52 338.33 C-228.81 335.17 -226.43 331.73 -224.01 327.52 C-222.28 325.31 -221.23 325.3 -218.59 324.7 C-218.26 323.71 -217.93 322.72 -217.59 321.7 C-216.95 321.56 -216.31 321.41 -215.65 321.27 C-214.97 321.08 -214.29 320.89 -213.59 320.7 C-212.89 319.39 -212.23 318.05 -211.59 316.7 C-210.58 315.29 -209.56 313.9 -208.52 312.52 C-198.33 298.07 -191.57 282.22 -188.26 264.86 C-187.59 261.7 -187.59 261.7 -186.54 258.82 C-185.36 254.96 -185.17 251.39 -185.02 247.39 C-184.95 245.87 -184.88 244.36 -184.8 242.84 C-184.77 242.13 -184.74 241.41 -184.7 240.67 C-184.56 238.31 -184.32 235.98 -184.02 233.64 C-183.28 226.92 -183.54 221.45 -185.14 214.88 C-185.92 211.08 -186.35 207.23 -184.59 203.7 C-183.27 203.7 -181.95 203.7 -180.59 203.7 C-179.6 207.33 -178.61 210.96 -177.59 214.7 C-175.94 214.7 -174.29 214.7 -172.59 214.7 C-168.21 219.08 -169.44 228.48 -169.4 234.42 C-169.41 251.36 -169.41 251.36 -170.96 258.66 C-171.48 261.18 -171.87 263.64 -172.21 266.18 C-173.38 274.76 -174.85 282.49 -178.26 290.51 C-180.24 295.28 -181.73 300.18 -183.28 305.1 C-186.11 312.92 -190.36 319.73 -194.84 326.7 C-195.39 327.57 -195.94 328.44 -196.52 329.34 C-197.87 331.46 -199.23 333.58 -200.59 335.7 C-199.97 335.39 -199.35 335.08 -198.72 334.76 C-197.32 334.07 -195.9 333.42 -194.46 332.83 C-192.13 331.43 -191.7 330.15 -190.59 327.7 C-189.09 325.95 -189.09 325.95 -187.59 324.7 C-186.93 324.7 -186.27 324.7 -185.59 324.7 C-185.37 324.15 -185.16 323.6 -184.95 323.04 C-183.11 319.89 -180.55 317.76 -177.84 315.39 C-168.97 307.38 -164.57 301.22 -160.59 289.7 C-159.9 287.83 -159.21 285.95 -158.52 284.08 C-157.58 281.48 -156.65 278.87 -155.73 276.26 C-153.03 268.64 -149.88 261.24 -146.65 253.83 C-142.74 244.86 -139.03 235.86 -135.59 226.7 C-135.32 226.01 -135.05 225.31 -134.77 224.59 C-133.21 220.54 -131.82 216.44 -130.46 212.32 C-125.7 197.98 -120.45 184.27 -113.62 170.76 C-110.31 164.19 -107.52 157.61 -105.15 150.64 C-103.28 145.28 -101.07 140.65 -97.98 135.89 C-96.71 133.89 -95.69 131.89 -94.65 129.77 C-92.06 125.92 -89.92 125.2 -85.59 123.7 C-76.33 120.49 -73.23 110.1 -69.21 101.89 C-67.49 98.51 -65.62 95.24 -63.71 91.95 C-56.61 79.7 -50.69 66.86 -44.6 54.09 C-34.48 32.9 -34.48 32.9 -29.69 25.54 C-28.11 22.91 -26.96 20.15 -25.75 17.34 C-24.26 13.97 -22.69 10.64 -21.09 7.33 C-20.8 6.74 -20.8 6.74 -19.37 3.74 C-16.95 -0.38 -14.29 -2.4 -9.77 -3.86 C-5.22 -4.9 -3.15 -3.19 0 0 Z M-54.59 98.7 C-54.59 99.36 -54.59 100.02 -54.59 100.7 C-55.25 100.7 -55.91 100.7 -56.59 100.7 C-58.24 102.38 -58.24 102.38 -60.09 104.58 C-61.88 106.69 -63.63 108.74 -65.59 110.7 C-66.18 111.99 -66.71 113.31 -67.21 114.64 C-69.26 119.91 -71.4 125.12 -73.59 130.33 C-73.92 131.13 -74.25 131.93 -74.59 132.75 C-76.47 137.21 -78.48 141.55 -80.68 145.86 C-82.45 149.44 -83.86 153.17 -85.34 156.87 C-86.59 159.7 -86.59 159.7 -88.14 162.25 C-90.04 165.47 -90.81 168.71 -91.74 172.3 C-92.65 174.9 -93.93 176.53 -95.59 178.7 C-96.32 180.75 -96.32 180.75 -96.9 183.02 C-98.32 188.08 -100.2 192.88 -102.18 197.75 C-104.08 202.41 -105.89 207.11 -107.65 211.83 C-107.77 212.16 -107.77 212.16 -108.4 213.85 C-108.9 215.17 -109.39 216.49 -109.88 217.81 C-112.81 225.67 -115.85 233.38 -119.38 240.99 C-124.59 252.73 -124.59 252.73 -124.59 256.7 C-121.33 255.35 -119.96 254.16 -118.27 251.08 C-116.44 247.95 -114.47 245.32 -112.02 242.64 C-108.89 239.17 -106.79 235.82 -104.59 231.7 C-103.78 230.41 -102.97 229.11 -102.15 227.83 C-100.38 225.02 -98.73 222.18 -97.15 219.27 C-95.48 216.22 -93.7 213.36 -91.71 210.52 C-88.15 205.28 -85.43 199.66 -82.7 193.96 C-81.83 192.2 -80.92 190.45 -80 188.71 C-75.34 179.76 -71.97 170.73 -68.9 161.14 C-68.44 159.72 -67.97 158.31 -67.51 156.89 C-64.08 146.44 -60.84 135.93 -57.71 125.39 C-56.59 121.72 -55.38 118.12 -54 114.54 C-53.73 113.83 -53.45 113.12 -53.17 112.39 C-52.63 111.01 -52.08 109.63 -51.52 108.26 C-49.94 104.25 -49.29 101.01 -49.59 96.7 C-51.59 96.7 -51.59 96.7 -54.59 98.7 Z M412.41 245.7 C411.52 246.43 410.63 247.15 409.71 247.9 C407.76 249.48 405.83 251.08 403.9 252.68 C401.41 254.7 401.41 254.7 398.41 256.7 C398.41 257.36 398.41 258.02 398.41 258.7 C397.75 258.88 397.09 259.07 396.4 259.25 C395.52 259.51 394.64 259.76 393.73 260.02 C393.29 260.14 393.29 260.14 391.09 260.75 C385.4 262.77 382.22 265.75 378.41 270.39 C377.59 271.38 376.76 272.38 375.91 273.4 C375.08 274.5 374.25 275.6 373.41 276.7 C372.96 277.24 372.5 277.77 372.03 278.32 C367.03 284.9 367.43 292.73 367.16 300.64 C367.07 302.79 366.97 304.94 366.87 307.08 C366.78 309.01 366.7 310.94 366.63 312.87 C366.41 315.7 366.41 315.7 365.41 316.7 C365.37 318.7 365.37 320.7 365.41 322.7 C369.56 322.17 371.79 320.93 374.98 318.27 C377.72 315.99 380.23 314.28 383.41 312.7 C383.85 312.08 384.28 311.47 384.73 310.83 C386.67 308.38 388.83 307.19 391.56 305.71 C394.33 304.2 396.87 302.56 399.41 300.7 C399.41 300.04 399.41 299.38 399.41 298.7 C399.99 298.46 400.57 298.21 401.16 297.95 C403.74 296.52 405.48 294.92 407.41 292.7 C407.41 292.04 407.41 291.38 407.41 290.7 C408.4 290.37 409.39 290.04 410.41 289.7 C412.42 287.09 412.42 287.09 414.54 283.83 C414.89 283.29 414.89 283.29 416.67 280.59 C418.41 277.7 418.41 277.7 419.41 274.7 C420.07 274.7 420.73 274.7 421.41 274.7 C428.49 265.06 427.65 253.27 427.41 241.7 C421.2 241.21 417.26 241.57 412.41 245.7 Z M-277.59 280.7 C-278.39 287.08 -278.73 293.28 -278.72 299.71 C-278.72 300.63 -278.72 301.55 -278.72 302.5 C-278.72 304.44 -278.72 306.38 -278.72 308.31 C-278.71 311.26 -278.72 314.21 -278.72 317.15 C-278.72 319.05 -278.72 320.94 -278.72 322.83 C-278.72 323.7 -278.72 324.57 -278.72 325.47 C-278.71 330.64 -278.33 335.59 -277.59 340.7 C-276.93 340.7 -276.27 340.7 -275.59 340.7 C-275.25 340.08 -274.91 339.45 -274.56 338.8 C-274.12 337.99 -273.67 337.17 -273.21 336.33 C-272.77 335.52 -272.33 334.7 -271.88 333.87 C-270.59 331.7 -270.59 331.7 -268.59 329.7 C-267.85 327.68 -267.2 325.64 -266.59 323.58 C-266.26 322.48 -265.93 321.39 -265.59 320.26 C-265.42 319.67 -265.42 319.67 -264.59 316.7 C-264.22 315.45 -263.85 314.2 -263.48 312.91 C-262.3 308.12 -262.29 303.43 -262.34 298.52 C-262.33 297.64 -262.32 296.76 -262.31 295.86 C-262.33 291.37 -262.46 287.78 -264.59 283.7 C-265.25 283.7 -265.91 283.7 -266.59 283.7 C-266.59 283.04 -266.59 282.38 -266.59 281.7 C-269.34 280.79 -270.95 280.59 -273.77 280.64 C-275.03 280.66 -276.29 280.68 -277.59 280.7 Z M-318.19 301.08 C-320.56 303.5 -322.91 305.94 -325.23 308.4 C-326.59 309.7 -326.59 309.7 -328.59 310.7 C-328.59 311.36 -328.59 312.02 -328.59 312.7 C-329.12 312.91 -329.65 313.12 -330.2 313.33 C-333.59 315.28 -336.1 317.92 -338.84 320.7 C-339.39 321.25 -339.94 321.8 -340.52 322.36 C-344.59 326.45 -344.59 326.45 -344.59 328.7 C-345.25 328.7 -345.91 328.7 -346.59 328.7 C-347.95 330.13 -347.95 330.13 -349.46 332.02 C-351.65 334.68 -353.8 336.66 -356.59 338.7 C-356.59 339.36 -356.59 340.02 -356.59 340.7 C-357.25 340.7 -357.91 340.7 -358.59 340.7 C-360.1 342.5 -360.1 342.5 -361.84 344.89 C-364.04 347.84 -366.13 350.36 -369.02 352.64 C-369.87 353.32 -370.71 354 -371.59 354.7 C-371.59 355.36 -371.59 356.02 -371.59 356.7 C-372.08 356.87 -372.08 356.87 -374.59 357.7 C-377.08 360.45 -379.17 363.51 -381.34 366.52 C-381.95 367.34 -382.57 368.16 -383.2 369 C-383.49 369.4 -383.49 369.4 -384.95 371.41 C-385.21 371.77 -385.21 371.77 -386.55 373.61 C-387.59 375.7 -387.59 375.7 -387.25 377.97 C-387.14 378.26 -387.14 378.26 -386.59 379.7 C-385.93 379.7 -385.27 379.7 -384.59 379.7 C-384.26 380.69 -383.93 381.68 -383.59 382.7 C-381.44 384.05 -381.44 384.05 -378.77 385.33 C-377.9 385.75 -377.03 386.18 -376.13 386.62 C-364.37 391.64 -346.96 390.18 -335.17 385.87 C-333.28 385.02 -331.41 384.1 -329.56 383.16 C-326.88 381.85 -324.46 381.01 -321.59 380.27 C-317.31 379.04 -314.17 377.39 -310.59 374.7 C-309.47 374 -308.36 373.3 -307.21 372.58 C-306.34 371.96 -305.48 371.34 -304.59 370.7 C-304.59 370.04 -304.59 369.38 -304.59 368.7 C-304.01 368.6 -303.43 368.5 -302.84 368.39 C-300.03 367.53 -298.61 366.87 -296.59 364.7 C-295.48 360.18 -295.43 356.9 -296.51 352.4 C-297.98 345.36 -298.31 338.24 -298.71 331.08 C-298.75 330.36 -298.8 329.64 -298.84 328.9 C-299.61 315.83 -299.83 302.8 -299.59 289.7 C-307.16 289.7 -313.12 296.03 -318.19 301.08 Z M414.41 318.7 C412.98 320.4 412.98 320.4 411.41 322.83 C408.38 327.36 405.17 331.68 401.79 335.95 C401.33 336.53 400.88 337.11 400.41 337.7 C398.2 340.49 395.96 343.24 393.64 345.94 C391.41 348.7 391.41 348.7 390.41 351.7 C388.76 353.05 387.09 354.38 385.41 355.7 C383.89 357.46 382.41 359.25 380.98 361.08 C378.39 364.31 375.84 367.4 372.85 370.27 C372.05 371.07 371.24 371.87 370.41 372.7 C370.41 373.36 370.41 374.02 370.41 374.7 C406.77 370.35 406.77 370.35 411.41 365.7 C411.79 363.21 411.79 363.21 411.98 360.27 C412.18 357.12 412.41 354.7 413.41 351.7 C413.67 348.49 413.86 345.28 414.02 342.06 C414.31 336.9 414.31 336.9 415.41 334.7 C415.62 332.75 415.78 330.79 415.91 328.83 C416.15 325.33 416.44 322.07 417.41 318.7 C416.42 318.7 415.43 318.7 414.41 318.7 Z M-624.9 333.02 C-625.46 333.57 -626.01 334.13 -626.59 334.7 C-626.59 335.36 -626.59 336.02 -626.59 336.7 C-627.12 336.93 -627.66 337.16 -628.21 337.39 C-630.7 338.77 -632.72 340.46 -634.89 342.29 C-637.76 344.68 -640.71 346.97 -643.65 349.27 C-645.42 350.65 -647.2 352.04 -648.97 353.44 C-650.42 354.57 -651.89 355.68 -653.37 356.79 C-664.62 366.51 -667.48 388.68 -668.59 402.7 C-667.93 402.54 -667.93 402.54 -664.59 401.7 C-664.59 401.04 -664.59 400.38 -664.59 399.7 C-664.05 399.46 -663.51 399.21 -662.96 398.95 C-657.65 396.16 -653.26 392.63 -648.82 388.64 C-645.49 385.75 -641.99 383.08 -638.49 380.4 C-637.86 379.84 -637.23 379.28 -636.59 378.7 C-636.59 378.04 -636.59 377.38 -636.59 376.7 C-635.99 376.48 -635.39 376.25 -634.77 376.02 C-631.95 374.32 -631.21 372.57 -629.59 369.7 C-628.95 368.62 -628.31 367.55 -627.65 366.43 C-614.7 344.31 -614.7 344.31 -617.59 332.7 C-620.71 331.75 -622 331.37 -624.9 333.02 Z M471.41 352.7 C469.41 355.7 469.41 355.7 469.41 359.7 C471.06 359.7 472.71 359.7 474.41 359.7 C474.08 357.39 473.75 355.08 473.41 352.7 C472.75 352.7 472.09 352.7 471.41 352.7 Z M237.41 357.7 C235.71 359.76 235.71 359.76 233.73 362.58 C233.01 363.59 232.3 364.59 231.56 365.63 C230.85 366.65 230.14 367.66 229.41 368.7 C228.81 369.55 228.2 370.4 227.58 371.27 C224 376.31 220.67 381.45 217.39 386.69 C214.62 390.91 211.64 394.98 208.61 399.02 C205.41 403.38 205.41 403.38 205.41 406.7 C215.85 405.32 226.19 403.57 236.54 401.67 C239.13 401.2 241.73 400.73 244.33 400.27 C245.98 399.97 247.64 399.66 249.3 399.36 C249.69 399.29 249.69 399.29 251.64 398.95 C255.14 398.29 257.41 397.7 260.41 395.7 C262.56 395.26 264.73 394.9 266.9 394.59 C268.23 394.39 269.56 394.2 270.89 394 C271.58 393.9 272.28 393.8 273 393.7 C284.52 392.05 295.91 390.12 307.26 387.52 C315.02 385.74 322.82 384.32 330.68 383.05 C331.55 382.9 332.42 382.75 333.31 382.6 C334.08 382.47 334.85 382.35 335.65 382.22 C336.23 382.05 336.81 381.88 337.41 381.7 C339.02 378.48 337.59 375.51 336.79 372.11 C336.41 369.7 336.41 369.7 337.41 366.7 C335.08 365.89 333.79 365.59 331.39 366.32 C330.69 366.67 329.99 367.01 329.26 367.36 C328.87 367.55 328.87 367.55 326.87 368.5 C326.06 368.9 325.25 369.29 324.41 369.7 C322.85 370.43 321.29 371.16 319.72 371.89 C318.93 372.25 318.14 372.62 317.32 373 C298.14 381.83 282.77 386.97 261.94 379.86 C251.75 375.8 244.08 367.53 239.41 357.7 C238.75 357.7 238.09 357.7 237.41 357.7 Z M-402.59 396.7 C-403.43 397.95 -404.26 399.2 -405.09 400.45 C-405.55 401.15 -406.01 401.85 -406.49 402.56 C-407.59 404.7 -407.59 404.7 -407.59 408.7 C-401.3 408.94 -395.71 408.11 -389.59 406.7 C-389.59 406.04 -389.59 405.38 -389.59 404.7 C-391.67 403.01 -391.67 403.01 -394.4 401.14 C-395.29 400.52 -396.19 399.9 -397.11 399.26 C-399.59 397.7 -399.59 397.7 -402.59 396.7 Z " fill="#000000" transform="translate(1580.5859375,20.296875)"/>
<path d="M0 0 C2.91 1.36 3.85 2.41 6 5 C7.88 11.61 5.93 16.92 3.88 23.31 C3.58 24.29 3.28 25.28 2.98 26.29 C1.17 32.07 -1.06 37.32 -3.85 42.69 C-5.52 46.05 -6.65 49.49 -7.75 53.06 C-13.51 70.93 -20.07 88.48 -27.14 105.86 C-28.38 108.96 -29.57 112.07 -30.75 115.19 C-33.32 121.89 -36.15 128.37 -39.44 134.75 C-41.35 138.51 -42.91 142.29 -44.38 146.25 C-46.62 152.26 -49.4 157.85 -52.32 163.55 C-53.87 166.73 -55.12 169.87 -56.31 173.19 C-58.69 179.62 -61.8 185.52 -65.06 191.54 C-68.59 198.1 -71.78 204.78 -74.78 211.59 C-76.87 216.19 -79.25 219.69 -82.64 223.42 C-84.44 225.52 -85.56 227.74 -86.69 230.25 C-88.7 234.71 -88.7 234.71 -90.61 236.58 C-92.89 238.91 -92.61 241.86 -93 245 C-94.06 247.44 -94.06 247.44 -95 249 C-95.66 249 -96.32 249 -97 249 C-97.25 249.82 -97.5 250.65 -97.75 251.5 C-100.38 258.85 -104.22 265.05 -108.7 271.42 C-109.32 272.29 -109.93 273.16 -110.56 274.06 C-111.14 274.88 -111.72 275.69 -112.32 276.54 C-115.75 281.57 -118.24 286.69 -120.62 292.28 C-122.11 295.22 -123.93 297.44 -126 300 C-127.53 302.39 -128.95 304.85 -130.38 307.31 C-133.24 312.18 -136.2 316.8 -139.67 321.26 C-155.59 342.09 -160.09 368.08 -163.18 393.43 C-163.9 399.29 -164.68 405.15 -165.5 411 C-165.62 411.87 -165.74 412.74 -165.86 413.64 C-166.6 418.87 -167.63 423.9 -169 429 C-166.14 426.31 -164.03 423.7 -162.06 420.31 C-161.55 419.44 -161.04 418.57 -160.52 417.67 C-154.61 407.3 -154.61 407.3 -152 402 C-151.34 402 -150.68 402 -150 402 C-149.81 401.22 -149.63 400.43 -149.44 399.62 C-147.77 395.43 -145.49 392.2 -142.85 388.56 C-141.56 386.77 -140.31 384.95 -139.09 383.1 C-136.83 379.75 -134.42 376.56 -131.94 373.38 C-127.05 367.07 -127.05 367.07 -125.32 364.6 C-124.88 364.07 -124.45 363.54 -124 363 C-123.34 363 -122.68 363 -122 363 C-121.77 362.14 -121.55 361.28 -121.32 360.39 C-119.81 356.52 -117.66 353.81 -114.94 350.75 C-114.45 350.19 -113.97 349.63 -113.47 349.06 C-112.47 347.92 -111.47 346.78 -110.46 345.65 C-109.08 344.09 -107.71 342.51 -106.34 340.93 C-101.83 335.78 -101.83 335.78 -100 334 C-99.34 334 -98.68 334 -98 334 C-98 333.34 -98 332.68 -98 332 C-96.36 330.31 -94.69 328.65 -93 327 C-91.52 325.25 -90.06 323.48 -88.62 321.69 C-82.81 314.53 -77.12 307.88 -70.11 301.86 C-64.43 296.86 -64.43 296.86 -63 294 C-62.34 294 -61.68 294 -61 294 C-60.87 293.7 -60.87 293.7 -60.21 292.18 C-58.92 289.85 -57.71 288.7 -55.62 287.06 C-52.65 284.63 -50.39 282.02 -48 279 C-47.34 279 -46.68 279 -46 279 C-45.73 278.4 -45.46 277.8 -45.18 277.19 C-41.71 270.76 -35.28 267.78 -28.59 265.55 C-25.14 264.82 -23.06 265.27 -20 267 C-17.58 269.42 -17.47 270.8 -16.88 274.12 C-16.79 274.58 -16.79 274.58 -16.37 276.88 C-16.25 277.58 -16.12 278.28 -16 279 C-15.24 279.12 -14.47 279.25 -13.69 279.38 C-11 280 -11 280 -8 282 C-5.98 286.54 -5.56 290.76 -7.25 295.44 C-9 299 -9 299 -11 301 C-11.53 302.92 -11.97 304.87 -12.37 306.82 C-12.61 308 -12.86 309.17 -13.11 310.38 C-13.62 312.85 -14.12 315.32 -14.61 317.8 C-16.02 324.49 -17.63 330.04 -21 336 C-21.37 336.82 -21.74 337.65 -22.12 338.5 C-22.41 339.14 -22.7 339.78 -23 340.44 C-23.29 341.1 -23.58 341.75 -23.88 342.43 C-25.36 344.5 -26.59 344.46 -29 345 C-30 347.5 -30 347.5 -31 351 C-38.08 369.79 -52.36 397.95 -68 411 C-68.66 411 -69.32 411 -70 411 C-70.19 411.8 -70.37 412.61 -70.56 413.44 C-72.51 418.27 -75.42 422.21 -79 426 C-79.99 426.33 -80.98 426.66 -82 427 C-82.71 428.31 -83.37 429.65 -84 431 C-85.18 432.61 -86.39 434.19 -87.62 435.75 C-88.26 436.55 -88.89 437.35 -89.54 438.17 C-90.02 438.78 -90.5 439.38 -91 440 C-90.34 440 -89.68 440 -89 440 C-88.67 439.34 -88.34 438.68 -88 438 C-87.34 438 -86.68 438 -86 438 C-85.67 437.01 -85.34 436.02 -85 435 C-84.34 435 -83.68 435 -83 435 C-82.73 434.36 -82.46 433.72 -82.19 433.06 C-81 431 -81 431 -78 430 C-77.67 429.01 -77.34 428.02 -77 427 C-75.06 424.81 -75.06 424.81 -73 423 C-72.34 423 -71.68 423 -71 423 C-70.34 421.68 -69.68 420.36 -69 419 C-68.34 419 -67.68 419 -67 419 C-67 418.34 -67 417.68 -67 417 C-66.34 417 -65.68 417 -65 417 C-64.34 415.68 -63.68 414.36 -63 413 C-62.34 413 -61.68 413 -61 413 C-61 412.34 -61 411.68 -61 411 C-60.34 411 -59.68 411 -59 411 C-59 410.34 -59 409.68 -59 409 C-58.34 409 -57.68 409 -57 409 C-56.88 408.65 -56.88 408.65 -56.27 406.88 C-54.78 403.51 -52.87 400.92 -50.62 398 C-49.85 396.99 -49.08 395.98 -48.29 394.94 C-45.64 391.54 -42.97 388.16 -40.21 384.85 C-30.9 373.56 -22.25 360.88 -15.88 347.69 C-11.97 339.74 -11.97 339.74 -7.69 338.12 C-4.35 337.97 -1.28 338.42 2 339 C2.33 339.99 2.66 340.98 3 342 C3.66 342 4.32 342 5 342 C7.44 346.27 8.57 349.09 8 354 C7.56 355.34 7.1 356.67 6.64 357.99 C4.12 366.23 3.41 374.85 2.38 383.38 C2.05 385.98 1.72 388.58 1.4 391.18 C1.19 392.79 0.99 394.4 0.8 396.01 C0.11 401.6 0.11 401.6 -0.52 403.98 C-1.02 406.08 -1.17 407.98 -1.24 410.14 C-1.26 410.94 -1.29 411.75 -1.32 412.58 C-1.34 413.44 -1.36 414.3 -1.39 415.18 C-1.41 416.08 -1.44 416.97 -1.46 417.89 C-1.52 419.77 -1.57 421.66 -1.61 423.54 C-1.69 426.42 -1.78 429.3 -1.87 432.18 C-1.92 434.02 -1.97 435.85 -2.01 437.68 C-2.04 438.54 -2.07 439.4 -2.1 440.29 C-2.19 444.76 -1.9 447.87 0 452 C-0.33 452.66 -0.66 453.32 -1 454 C5.23 450.22 10.55 445.87 15.84 440.86 C18.48 438.39 21.28 436.16 24.11 433.91 C29.89 429.21 35.15 424.12 40.38 418.82 C41.89 417.3 43.4 415.78 44.92 414.26 C52.53 406.62 52.53 406.62 55.67 402.79 C58 400 58 400 60.44 398.12 C63.33 395.73 65.25 393.13 67.45 390.11 C68.99 388.01 70.59 386 72.25 384 C72.73 383.42 73.21 382.85 73.7 382.25 C75 381 75 381 77 381 C77.11 380.74 77.11 380.74 77.66 379.4 C79.49 376.12 81.92 373.43 84.38 370.62 C87.19 367.41 89.91 364.25 92.23 360.65 C94 358 94 358 96 357 C96.21 356.59 96.21 356.59 97.25 354.5 C98.66 351.68 100.11 349.28 101.88 346.69 C105.56 341.25 108.87 335.73 111.38 329.66 C113.03 325.93 115.02 322.56 117.19 319.12 C120.61 313.56 123.65 307.91 126.44 302 C126.77 301.31 127.1 300.61 127.44 299.9 C129.39 295.68 130.78 291.5 132 287 C135.33 279.65 135.33 279.65 139.36 278.09 C142.39 277.33 144.87 276.84 148 277 C152.05 279.8 154.46 283.37 156 288 C156.26 293.38 155.74 296.88 154 302 C153.48 304.28 153.01 306.58 152.56 308.88 C152.5 309.2 152.5 309.2 152.18 310.85 C151.92 312.22 151.65 313.59 151.39 314.96 C151.02 316.91 150.63 318.85 150.25 320.8 C149.6 324.14 148.98 327.48 148.39 330.83 C148.13 332.29 147.86 333.75 147.58 335.21 C145.29 347.29 144.71 359.18 144.69 371.44 C144.68 372.16 144.68 372.87 144.68 373.61 C144.64 388.66 145.62 404.18 152 418 C152.67 419.66 153.34 421.33 154 423 C154.66 423 155.32 423 156 423 C156.7 423.87 157.4 424.73 158.12 425.62 C164.85 433.84 173.73 437.91 184 440 C191.43 440.73 197.9 440.32 205 438 C208.3 437.5 211.6 437.07 214.91 436.66 C218.2 435.96 220.14 434.72 223 433 C225.42 432.35 227.86 431.79 230.31 431.31 C231.57 431.06 232.82 430.81 234.11 430.55 C234.59 430.46 234.59 430.46 237 430 C237.09 429.38 237.19 428.75 237.28 428.11 C237.52 427.41 237.76 426.72 238 426 C240.65 424.71 243.1 423.7 245.88 422.75 C246.61 422.48 247.34 422.21 248.1 421.94 C251.17 420.84 253.71 420 257 420 C256.69 420.54 256.38 421.07 256.06 421.62 C255 424 255 424 254.94 426.81 C253.4 432.03 249.35 434 245 437 C243.8 437.87 242.6 438.74 241.41 439.61 C229.76 447.98 217.18 455.91 203 459 C202.38 459.14 201.76 459.28 201.12 459.42 C199 459.88 196.88 460.32 194.75 460.75 C194.08 460.89 193.4 461.03 192.71 461.18 C188.5 461.97 185.18 461.84 181 461 C180.67 461.33 180.34 461.66 180 462 C173.61 462 168.59 460.22 162.81 457.69 C162.14 457.39 161.46 457.1 160.76 456.79 C154.14 453.79 148.38 449.87 143 445 C143 444.34 143 443.68 143 443 C142.4 442.74 141.8 442.48 141.18 442.21 C131.91 437.08 127.75 422.85 124.68 413.37 C123.54 409.38 122.88 405.36 122.31 401.25 C122.25 400.79 122.25 400.79 121.93 398.47 C120.36 385.71 120.74 372.83 121 360 C116.6 364.13 113.42 368.59 110.13 373.62 C109.13 375.11 108.07 376.56 107 378 C106.34 378 105.68 378 105 378 C104.77 378.71 104.55 379.42 104.31 380.15 C102.71 383.62 100.63 385.85 98 388.62 C95.42 391.36 93.09 393.87 91 397 C90.34 397 89.68 397 89 397 C88.74 397.58 88.48 398.15 88.21 398.75 C86.91 401.17 85.41 402.96 83.56 405 C81.72 407.04 79.99 409.01 78.4 411.25 C78.17 411.54 78.17 411.54 77 413 C76.34 413 75.68 413 75 413 C74.77 413.54 74.55 414.07 74.31 414.62 C71.45 419.8 67.2 423.9 63 428 C62.28 428.76 61.56 429.53 60.81 430.31 C59 432 59 432 57 432 C56.34 433.32 55.68 434.64 55 436 C54.34 436 53.68 436 53 436 C53 436.66 53 437.32 53 438 C51.46 439.48 51.46 439.48 49.38 441.19 C46.67 443.48 44.25 445.75 42 448.5 C39.38 451.66 36.52 454.27 33.39 456.92 C31.55 458.53 29.76 460.15 27.98 461.83 C9.81 479 9.81 479 5 479 C5 479.66 5 480.32 5 481 C-9.52 482.2 -9.52 482.2 -15.19 477.88 C-22.45 471.05 -25.84 463.48 -26.27 453.54 C-26.38 449.12 -26.38 444.71 -26.34 440.29 C-26.31 437.53 -26.32 434.78 -26.32 432.02 C-26.3 420.56 -25.52 409.36 -24 398 C-24.35 398.46 -24.69 398.93 -25.05 399.4 C-31.1 407.45 -37.12 415.35 -44 422.71 C-46.85 425.98 -49.22 429.53 -51.59 433.16 C-51.82 433.47 -51.82 433.47 -53 435 C-53.66 435 -54.32 435 -55 435 C-55.19 435.68 -55.37 436.36 -55.56 437.06 C-57.59 441.21 -60.67 443.86 -64 447 C-64.76 447.78 -65.53 448.57 -66.31 449.38 C-71.85 454.79 -77.55 459.97 -83.75 464.62 C-87.17 467.22 -89.83 469.96 -92.52 473.29 C-95.02 476.18 -97.87 478.8 -101 481 C-101.66 481 -102.32 481 -103 481 C-103.33 481.99 -103.66 482.98 -104 484 C-105.47 485.16 -105.47 485.16 -107.35 486.27 C-108.04 486.68 -108.73 487.1 -109.43 487.53 C-110.16 487.95 -110.88 488.37 -111.62 488.81 C-117.23 492.12 -122.16 495.65 -127 500 C-130.7 503 -130.7 503 -133 503 C-133 503.66 -133 504.32 -133 505 C-134.72 506.54 -136.5 508.01 -138.31 509.44 C-143.79 513.78 -143.79 513.78 -145.73 515.79 C-147 517 -147 517 -149 517 C-149.21 517.74 -149.41 518.49 -149.62 519.25 C-151.54 523.08 -153.09 524.22 -157 526 C-161.94 526.3 -166.37 526.07 -170.56 523.31 C-172 521 -172 521 -172.75 518.1 C-174.3 514.26 -175.92 513.25 -179.38 511.06 C-185.56 506.75 -188.22 504.09 -189.63 496.66 C-190.16 493.11 -190.59 489.56 -191 486 C-191.09 485.56 -191.09 485.56 -191.52 483.35 C-192.11 479.2 -192.14 475.17 -192.13 470.99 C-192.13 470.56 -192.13 470.56 -192.14 468.41 C-192.14 466.62 -192.13 464.84 -192.13 463.05 C-192.12 460.31 -192.13 457.57 -192.14 454.83 C-192.14 453.09 -192.13 451.35 -192.13 449.61 C-192.13 448.79 -192.14 447.98 -192.14 447.13 C-192.13 443.83 -192.05 441.15 -191 438 C-190.84 435.79 -190.72 433.58 -190.62 431.38 C-190.22 423.86 -189.44 416.41 -188.56 408.94 C-188.44 407.87 -188.32 406.8 -188.19 405.69 C-187.54 400.27 -186.7 395.19 -185 390 C-185.66 390 -186.32 390 -187 390 C-187.29 390.8 -187.58 391.61 -187.88 392.44 C-189 395 -189 395 -191 396 C-191.8 397.52 -192.54 399.06 -193.25 400.62 C-195.27 404.82 -197.52 408.06 -200.65 411.48 C-202.43 413.49 -203.71 415.66 -205 418 C-206.56 420.81 -206.56 420.81 -208 423 C-208.66 423 -209.32 423 -210 423 C-210.31 423.78 -210.62 424.57 -210.94 425.38 C-212 428 -212 428 -213 430 C-213.66 430 -214.32 430 -215 430 C-215.25 430.69 -215.5 431.39 -215.76 432.1 C-217.18 435.42 -218.95 438.32 -220.88 441.38 C-223.68 445.87 -226.42 450.38 -229 455 C-229.66 455 -230.32 455 -231 455 C-231.27 455.58 -231.55 456.15 -231.83 456.75 C-232.99 458.98 -234.27 460.99 -235.69 463.06 C-238.01 466.51 -240.28 469.99 -242.5 473.5 C-246.96 480.52 -251.57 487.41 -256.4 494.18 C-260.73 500.27 -264.96 506.33 -268.71 512.8 C-271.77 518.02 -275.16 522.97 -278.94 527.69 C-282.04 531.74 -284.18 536.2 -286.38 540.78 C-288.52 545.18 -290.97 549.13 -293.82 553.1 C-295 555 -295 555 -295.75 558.38 C-297.29 561.6 -298.16 561.84 -301.44 563.06 C-307.39 564.52 -312.52 563.72 -318 561 C-324.05 553.3 -323.28 541.57 -323.23 532.28 C-323.23 530.95 -323.23 529.61 -323.23 528.28 C-323.23 524.75 -323.22 521.21 -323.2 517.68 C-323.19 515.5 -323.18 513.31 -323.18 511.13 C-323.14 494.71 -323.07 478.29 -322.56 461.88 C-322.54 461.24 -322.54 461.24 -322.44 458.01 C-322.14 449.8 -322.14 449.8 -321.51 446.22 C-320.86 442.13 -320.68 438.08 -320.5 433.95 C-320.42 432.2 -320.33 430.46 -320.25 428.71 C-320.12 425.97 -320 423.22 -319.88 420.48 C-319.75 417.83 -319.63 415.17 -319.5 412.52 C-319.48 412.1 -319.48 412.1 -319.39 410.02 C-319.11 404.23 -319.11 404.23 -318 402 C-317.95 399.35 -317.96 396.71 -318 394.06 C-318.05 387.32 -317.92 380.61 -317.56 373.88 C-317.54 373.49 -317.54 373.49 -317.44 371.55 C-317.25 368.09 -316.96 364.7 -316.5 361.27 C-315.74 355.49 -315.63 349.69 -315.44 343.88 C-315.39 342.6 -315.35 341.32 -315.31 340 C-314.91 327.17 -314.94 314.35 -315.04 301.52 C-315.04 300.73 -315.05 299.94 -315.05 299.13 C-315.06 297.66 -315.07 296.18 -315.09 294.71 C-315.11 290.68 -314.71 286.95 -314 283 C-313.87 281.19 -313.78 279.37 -313.72 277.56 C-313.68 276.56 -313.64 275.57 -313.61 274.54 C-313.54 272.47 -313.46 270.4 -313.39 268.32 C-313.36 267.33 -313.32 266.33 -313.28 265.31 C-313.25 264.41 -313.22 263.51 -313.19 262.58 C-313 260 -313 260 -312.42 257.48 C-311.94 254.65 -312.38 252.78 -313 250 C-313.09 247.9 -313.13 245.79 -313.13 243.69 C-313.13 242.46 -313.14 241.23 -313.14 239.96 C-313.14 239.31 -313.14 239.31 -313.12 236 C-313.12 235.33 -313.12 234.66 -313.12 233.97 C-313.09 219.78 -312.51 205.66 -311.44 191.5 C-310.76 182.01 -310.91 172.51 -311 163 C-314.5 165.33 -315.19 167.3 -317 171 C-317.66 171.33 -318.32 171.66 -319 172 C-319.68 173.89 -320.35 175.79 -321.02 177.69 C-322.43 181.02 -324.46 183.82 -326.52 186.79 C-328.69 190.04 -330.33 193.48 -332 197 C-332.91 198.83 -333.83 200.67 -334.75 202.5 C-335.18 203.36 -335.61 204.21 -336.05 205.09 C-336.36 205.72 -336.68 206.35 -337 207 C-337.66 207 -338.32 207 -339 207 C-339.22 207.8 -339.44 208.6 -339.67 209.43 C-341.38 214.02 -343.79 217.99 -346.31 222.19 C-350.32 228.98 -354.02 235.68 -357 243 C-357.66 243 -358.32 243 -359 243 C-359.11 243.57 -359.22 244.14 -359.34 244.73 C-360.09 247.29 -361.19 249.12 -362.62 251.38 C-365.52 256.06 -367.98 260.89 -370.4 265.83 C-372.1 269.28 -373.91 272.6 -375.94 275.88 C-378.41 279.89 -380.55 284.02 -382.62 288.25 C-385.9 294.94 -389.41 301.48 -393 308 C-397 315.26 -400.87 322.54 -404.5 329.99 C-405.79 332.63 -407.11 335.19 -408.63 337.7 C-410 340 -410 340 -411.31 343.75 C-412.43 346.85 -413.79 349.31 -415.69 352 C-419.83 357.95 -422.84 364.45 -426 370.95 C-429.79 378.73 -433.63 386.47 -437.89 394 C-438.96 395.93 -439.96 397.89 -440.94 399.88 C-442.87 403.8 -444.98 407.62 -447.09 411.46 C-448.67 414.35 -450.18 417.27 -451.69 420.2 C-451.93 420.67 -451.93 420.67 -453.15 423.02 C-454.12 424.9 -455.08 426.77 -456.04 428.65 C-458.38 433.17 -460.75 437.06 -464 441 C-464.95 443.18 -464.95 443.18 -465.69 445.44 C-467.63 450.58 -470.4 454.97 -473.42 459.51 C-477.6 465.83 -481.31 472.39 -485 479 C-485.66 479 -486.32 479 -487 479 C-487.29 479.93 -487.58 480.86 -487.88 481.81 C-489 485 -489 485 -491 488 C-491.66 488 -492.32 488 -493 488 C-493.11 488.35 -493.11 488.35 -493.69 490.12 C-494.98 492.95 -496.54 494.82 -498.57 497.13 C-500.98 500.29 -502.73 503.81 -504.57 507.32 C-507.35 512.53 -507.35 512.53 -509 515 C-509.66 515 -510.32 515 -511 515 C-511.08 515.58 -511.17 516.15 -511.25 516.75 C-512.21 519.62 -513.81 520.95 -516 523 C-516.33 523.66 -516.66 524.32 -517 525 C-517.66 525 -518.32 525 -519 525 C-519.22 525.68 -519.45 526.36 -519.68 527.05 C-521.37 530.82 -523.65 533.85 -526.12 537.12 C-527.13 538.47 -528.13 539.81 -529.13 541.15 C-529.62 541.8 -530.11 542.46 -530.62 543.14 C-532.48 545.64 -534.26 548.2 -536.06 550.75 C-539.68 555.77 -543.74 560.22 -548 564.69 C-550 567 -550 567 -551 570 C-552.12 571.19 -553.25 572.37 -554.43 573.49 C-555.56 574.58 -556.67 575.69 -557.76 576.82 C-562.81 582.04 -568.22 586.6 -574 591 C-574.57 591.45 -575.14 591.89 -575.72 592.36 C-579.92 595.46 -583.91 596.32 -589.08 595.78 C-592.82 595.06 -594.63 594.37 -597.38 591.62 C-597.91 590.76 -598.45 589.89 -599 589 C-599.43 588.38 -599.87 587.76 -600.31 587.12 C-601.95 582.07 -599.57 575.71 -598.5 570.62 C-597.5 565.8 -596.65 561.05 -596.41 556.12 C-595.91 553.54 -594.85 551.32 -593.78 548.92 C-592.47 545.69 -591.72 542.33 -590.94 538.94 C-589.82 534.21 -588.54 529.61 -587 525 C-586.75 523.63 -586.52 522.25 -586.31 520.88 C-585.2 515.57 -582.49 511.44 -579.68 506.87 C-578.24 504.42 -577.18 502.17 -576.25 499.5 C-575.15 496.42 -574.25 494.35 -572 492 C-571.34 492 -570.68 492 -570 492 C-569.89 491.71 -569.89 491.71 -569.31 490.25 C-566.99 486.27 -563.99 484.43 -559.81 482.62 C-554.84 481.81 -550.82 482.74 -546 484 C-546 484.66 -546 485.32 -546 486 C-545.34 486 -544.68 486 -544 486 C-541.79 489.31 -541.78 490.34 -541.88 494.19 C-541.89 495.09 -541.91 495.99 -541.93 496.92 C-541.95 497.61 -541.98 498.29 -542 499 C-552 504 -552 504 -554.17 504.64 C-557.29 506.95 -557.67 510.7 -558.56 514.31 C-560.64 522.41 -560.64 522.41 -562.59 525.61 C-564.41 528.7 -564.66 531.33 -565.06 534.88 C-565.68 539.79 -566.44 544.31 -568 549 C-567.34 549 -566.68 549 -566 549 C-565.67 548.01 -565.34 547.02 -565 546 C-564.34 546 -563.68 546 -563 546 C-562.76 545.45 -562.51 544.9 -562.26 544.33 C-560.73 541.5 -558.86 539.22 -556.81 536.75 C-556.01 535.78 -555.2 534.8 -554.37 533.8 C-552.42 531.5 -550.45 529.24 -548.44 527 C-541.49 519.12 -535.74 510.25 -529.86 501.57 C-527.37 497.92 -524.79 494.43 -522 491 C-516.44 483.4 -511.18 475.53 -506.48 467.36 C-505 465 -505 465 -503.52 463.54 C-501.43 461.42 -500.2 459.03 -498.75 456.44 C-496.48 452.45 -494.12 448.65 -491.44 444.94 C-487.81 439.85 -484.89 434.54 -482 429 C-480.34 425.81 -478.67 422.62 -477 419.44 C-476.57 418.61 -476.13 417.78 -475.69 416.93 C-472.65 411.16 -469.44 405.54 -466 400 C-463.84 396.48 -461.96 393.04 -460.62 389.12 C-459.54 386.06 -458.18 383.65 -456.31 381 C-453.48 376.94 -451.29 372.75 -449.12 368.31 C-444.94 359.75 -440.35 351.48 -435.38 343.34 C-434.19 341.32 -433.21 339.36 -432.31 337.19 C-431.88 336.14 -431.45 335.08 -431 334 C-430.34 334 -429.68 334 -429 334 C-428.88 333.43 -428.76 332.85 -428.64 332.26 C-427.96 329.85 -427.01 328.03 -425.75 325.88 C-422.98 321 -420.48 316.03 -418 311 C-417.17 309.33 -416.33 307.67 -415.5 306 C-415.09 305.18 -414.68 304.36 -414.26 303.52 C-410.38 295.75 -410.38 295.75 -409.11 293.23 C-408.25 291.5 -407.4 289.75 -406.56 288 C-404.24 283.54 -401.62 279.29 -399 275 C-398.53 274.2 -398.06 273.4 -397.57 272.58 C-397.13 271.85 -396.7 271.12 -396.25 270.38 C-395.86 269.72 -395.48 269.07 -395.08 268.4 C-394.9 268.17 -394.9 268.17 -394 267 C-393.34 267 -392.68 267 -392 267 C-391.94 266.56 -391.94 266.56 -391.66 264.31 C-391 261.02 -390.09 258.89 -388.44 256 C-388.17 255.52 -388.17 255.52 -386.81 253.12 C-386.51 252.61 -386.51 252.61 -385 250 C-383.67 247.69 -382.33 245.38 -381 243.06 C-380.66 242.47 -380.32 241.89 -379.97 241.28 C-377.22 236.48 -374.73 231.57 -372.3 226.6 C-370.98 223.96 -369.55 221.43 -368.05 218.89 C-366.65 216.37 -365.4 213.78 -364.12 211.19 C-361.87 206.64 -359.44 202.3 -356.78 197.98 C-353.89 193.14 -351.21 188.19 -348.51 183.24 C-346.53 179.62 -344.49 176.3 -342 173 C-341.32 171.05 -340.63 169.1 -339.95 167.14 C-338.89 164.76 -337.57 162.98 -335.94 160.94 C-333.14 157.43 -332.13 154.36 -331 150 C-329.7 147.98 -328.36 145.98 -327 144 C-326.21 142.45 -325.44 140.88 -324.69 139.31 C-322.88 135.61 -320.89 132.19 -318.62 128.75 C-315.14 123.41 -312.35 117.89 -309.57 112.16 C-308.37 109.76 -307.15 107.47 -305.75 105.19 C-304.25 102.46 -303.39 100.2 -302.5 97.25 C-301.67 94.67 -301.1 93.12 -299.38 91 C-294.72 89.04 -290.02 88.22 -285.25 90.06 C-284.51 90.7 -283.76 91.34 -283 92 C-282.05 92.78 -281.1 93.57 -280.12 94.38 C-277 98.39 -277.84 102.51 -278.41 107.32 C-279.23 112.43 -280.14 117.5 -281.14 122.58 C-283.97 137.07 -285.69 151.38 -286.62 166.12 C-286.75 167.93 -286.87 169.74 -286.99 171.54 C-287.23 175.06 -287.46 178.58 -287.68 182.11 C-287.88 185.14 -288.08 188.17 -288.31 191.21 C-288.98 200.56 -289.06 209.82 -288.96 219.18 C-288.79 237.5 -289.3 255.75 -290.08 274.05 C-290.75 289.91 -291.26 305.76 -291.56 321.62 C-291.64 325.38 -291.71 329.13 -291.79 332.88 C-291.8 333.75 -291.82 334.63 -291.84 335.53 C-292 343.23 -292.22 350.93 -292.5 358.62 C-292.52 359.14 -292.52 359.14 -292.61 361.75 C-292.64 362.67 -292.68 363.59 -292.72 364.54 C-292.75 365.31 -292.78 366.09 -292.81 366.89 C-293 369 -293 369 -293.49 370.76 C-294.12 373.51 -294.24 376.13 -294.37 378.95 C-294.43 380.15 -294.49 381.36 -294.55 382.6 C-294.6 383.9 -294.66 385.2 -294.72 386.54 C-294.78 387.9 -294.85 389.27 -294.91 390.63 C-295.08 394.23 -295.24 397.83 -295.4 401.43 C-295.66 407.13 -295.92 412.83 -296.19 418.53 C-296.28 420.59 -296.38 422.66 -296.47 424.72 C-296.86 433.29 -297.31 441.86 -297.83 450.42 C-298.07 455.41 -298.03 460.38 -297.94 465.38 C-297.99 468.15 -298.17 470.73 -298.48 473.48 C-299.16 479.76 -299.22 486.04 -299.24 492.35 C-299.25 494.39 -299.28 496.43 -299.31 498.47 C-299.32 499.77 -299.32 501.06 -299.33 502.4 C-299.33 502.98 -299.33 502.98 -299.36 505.95 C-298.97 509.25 -298.23 510.6 -296 513 C-295.46 512.2 -294.93 511.39 -294.38 510.56 C-294.19 510.29 -294.19 510.29 -293.26 508.9 C-292.38 507.58 -291.51 506.25 -290.64 504.91 C-287.62 500.29 -284.41 495.92 -280.99 491.59 C-278.1 487.83 -275.37 483.96 -272.64 480.1 C-270.35 476.88 -268.03 473.69 -265.62 470.56 C-263.07 467.2 -261.01 463.71 -259 460 C-258.34 460 -257.68 460 -257 460 C-256.73 459.46 -256.47 458.91 -256.2 458.35 C-252.16 450.42 -247.59 443.22 -241.91 436.37 C-238.43 432.05 -235.45 427.41 -232.59 422.66 C-232.15 421.93 -231.71 421.19 -231.25 420.44 C-230.86 419.78 -230.48 419.11 -230.08 418.43 C-229.9 418.2 -229.9 418.2 -229 417 C-228.34 417 -227.68 417 -227 417 C-226.75 416.26 -226.5 415.51 -226.25 414.75 C-225 412 -225 412 -223.19 410.31 C-221.03 408.03 -220.16 406.38 -218.88 403.56 C-215.56 396.65 -210.77 390.94 -206 385 C-193.96 369.91 -193.96 369.91 -190 363 C-188.94 361.16 -187.88 359.33 -186.81 357.5 C-186.32 356.64 -185.84 355.79 -185.33 354.91 C-184.89 354.28 -184.45 353.65 -184 353 C-183.34 353 -182.68 353 -182 353 C-181.71 352.42 -181.42 351.84 -181.12 351.24 C-180.43 349.85 -179.72 348.48 -179 347.11 C-176.36 342.05 -174.78 337.11 -173.39 331.57 C-171.73 325.21 -169.6 319.17 -167.19 313.04 C-165.19 307.92 -163.52 302.71 -161.92 297.45 C-159.55 289.72 -157.02 282.11 -154.06 274.58 C-152.83 271.42 -151.79 268.31 -151.03 265.02 C-150.04 260.87 -148.5 257.12 -146.75 253.25 C-146.44 252.56 -146.13 251.86 -145.82 251.15 C-143.49 245.97 -140.97 240.9 -138.39 235.84 C-136.54 232.06 -134.95 228.19 -133.36 224.29 C-131.74 220.36 -130.07 216.46 -128.38 212.56 C-128.23 212.23 -128.23 212.23 -127.5 210.52 C-126.27 207.71 -125.01 205.02 -123.43 202.39 C-121.83 199.71 -120.85 197.07 -119.81 194.12 C-117.14 186.99 -113.65 180.49 -109.99 173.83 C-107.53 169.29 -105.28 164.64 -103 160 C-102.34 160 -101.68 160 -101 160 C-100.75 158.99 -100.49 157.98 -100.23 156.94 C-99.1 152.99 -97.31 149.51 -95.31 145.94 C-94.59 144.62 -93.88 143.31 -93.16 142 C-92.8 141.33 -92.44 140.67 -92.07 139.99 C-89.82 135.79 -87.74 131.5 -85.64 127.22 C-84.18 124.36 -82.63 121.58 -81.03 118.8 C-78.92 115.1 -76.97 111.3 -75 107.52 C-72.88 103.51 -70.55 99.76 -68 96 C-64.87 90.72 -62.11 85.25 -59.41 79.75 C-58.95 78.79 -58.48 77.84 -57.99 76.86 C-57.06 74.96 -56.14 73.05 -55.22 71.14 C-52.96 66.52 -50.57 62.25 -47.55 58.08 C-43.61 52.62 -40.59 46.82 -37.56 40.81 C-36.43 38.61 -35.3 36.4 -34.17 34.19 C-33.9 33.66 -33.9 33.66 -32.53 30.98 C-30.51 27.05 -28.46 23.15 -26.38 19.25 C-25.78 18.14 -25.19 17.03 -24.59 15.89 C-24.06 14.94 -23.54 13.98 -23 13 C-22.53 12.14 -22.06 11.27 -21.57 10.38 C-16.57 2.82 -9.19 -2.37 0 0 Z M-31 69 C-30 71 -30 71 -30 71 Z M-32 72 C-33.09 73.69 -34.17 75.37 -35.25 77.06 C-35.85 78 -36.46 78.94 -37.08 79.91 C-38.78 82.65 -40.39 85.42 -41.98 88.22 C-43.32 90.55 -44.73 92.84 -46.14 95.13 C-50.48 102.21 -54.32 109.44 -57.97 116.89 C-60.07 121.17 -62.27 125.41 -64.5 129.62 C-64.88 130.34 -65.26 131.06 -65.65 131.8 C-67.96 136.14 -70.38 140.39 -72.88 144.62 C-77.1 151.91 -80.66 159.47 -84.23 167.09 C-84.68 168.04 -85.12 168.99 -85.58 169.97 C-85.98 170.82 -86.37 171.67 -86.78 172.54 C-88 175 -88 175 -89.57 177.59 C-91.11 180.19 -92.06 182.85 -93.08 185.69 C-94.09 188.23 -95.26 190.62 -96.5 193.06 C-104.34 208.52 -111.62 224.12 -118.07 240.21 C-120.54 246.38 -123.24 252.44 -126.19 258.4 C-128.5 263.24 -129.46 266.63 -129 272 C-128.34 272 -127.68 272 -127 272 C-125.9 270.61 -125.9 270.61 -124.72 268.68 C-124.29 267.98 -123.86 267.28 -123.42 266.56 C-123.19 266.19 -123.19 266.19 -122.06 264.31 C-121.62 263.59 -121.18 262.87 -120.72 262.13 C-118.91 259.17 -117.12 256.2 -115.34 253.23 C-114.08 251.14 -112.8 249.07 -111.5 247 C-109 243 -106.55 238.99 -104.25 234.88 C-102.49 231.76 -100.54 228.8 -98.56 225.81 C-90 212.49 -90 212.49 -90 206 C-89.34 206 -88.68 206 -88 206 C-87.73 205.44 -87.47 204.87 -87.19 204.29 C-81.91 193.14 -76.57 182.02 -71 171 C-70.49 169.98 -69.99 168.97 -69.46 167.92 C-68.56 166.12 -67.65 164.33 -66.72 162.54 C-66.32 161.77 -65.91 160.99 -65.5 160.19 C-65.3 159.8 -65.3 159.8 -64.28 157.86 C-63.24 155.53 -62.45 153.34 -61.69 150.92 C-59.44 143.99 -56.11 137.52 -52.94 130.97 C-50.29 125.36 -48.35 120.29 -47.52 114.12 C-46.9 111.61 -45.88 110.3 -44.19 108.38 C-40.21 103.59 -38.92 97.99 -37.24 92.13 C-35.79 87.13 -33.83 82.38 -31.82 77.57 C-31 75 -31 75 -32 72 Z M-55.46 314.42 C-57 316 -57 316 -58.4 318.41 C-60.18 321.29 -62.1 323.03 -64.69 325.19 C-66.16 326.42 -67.61 327.68 -69 329 C-69 329.66 -69 330.32 -69 331 C-69.5 331.17 -69.5 331.17 -72 332 C-73.39 333.62 -74.72 335.29 -76 337 C-81.48 343.84 -87.12 350.41 -93.13 356.79 C-95 359 -95 359 -95 361 C-95.66 361 -96.32 361 -97 361 C-98.51 362.68 -98.51 362.68 -100.12 364.88 C-100.66 365.59 -101.2 366.31 -101.76 367.05 C-103 369 -103 369 -103 371 C-103.66 371 -104.32 371 -105 371 C-106.93 373.29 -108.73 375.59 -110.5 378 C-111.03 378.72 -111.56 379.43 -112.11 380.17 C-115.77 385.16 -119.22 390.26 -122.5 395.5 C-122.9 396.13 -123.29 396.77 -123.7 397.42 C-125.59 400.51 -127.33 403.61 -128.92 406.87 C-131.25 411.64 -134.04 416.1 -136.81 420.62 C-141.63 428.58 -146.14 436.52 -150 445 C-150.47 446.02 -150.94 447.03 -151.43 448.08 C-155.16 456.85 -156.5 465.74 -157.69 475.12 C-158 477 -158 477 -159 480 C-158.67 480.99 -158.34 481.98 -158 483 C-153.16 482.58 -151.08 480.45 -148 477 C-147.37 476.38 -146.75 475.75 -146.11 475.11 C-138.92 467.69 -133.83 459.11 -128.46 450.34 C-126.5 447.2 -124.44 444.13 -122.37 441.06 C-120.55 438.33 -118.83 435.55 -117.12 432.75 C-115.11 429.45 -113.09 426.15 -111.03 422.88 C-104.22 412.05 -98.34 400.78 -92.69 389.31 C-85.5 374.79 -77.67 360.46 -69.12 346.69 C-64.22 338.75 -59.41 330.77 -54.75 322.69 C-54.58 322.39 -54.58 322.39 -53.71 320.91 C-51.87 317.68 -50.28 314.49 -49 311 C-51.9 311 -53.29 312.67 -55.46 314.42 Z M-35 323 C-36.4 324.74 -36.4 324.74 -37.94 327.31 C-38.24 327.81 -38.24 327.81 -39.77 330.33 C-39.95 330.61 -39.95 330.61 -40.82 332.06 C-42.66 335.09 -44.57 338.07 -46.47 341.06 C-50.59 347.54 -54.67 354.02 -58.58 360.62 C-60.35 363.58 -62.18 366.51 -64 369.44 C-66.99 374.29 -69.8 379.19 -72.48 384.22 C-74.77 388.4 -77.23 392.48 -79.68 396.57 C-81 399 -81 399 -81 401 C-81.66 401 -82.32 401 -83 401 C-83 401.66 -83 402.32 -83 403 C-83.66 403 -84.32 403 -85 403 C-85 403.66 -85 404.32 -85 405 C-82.48 403.88 -80.64 402.7 -78.5 400.94 C-76 399 -76 399 -73.88 398.62 C-73.57 398.52 -73.57 398.52 -72 398 C-71.56 397.11 -71.12 396.22 -70.66 395.31 C-68.94 391.89 -66.98 389.34 -64.5 386.44 C-60.86 382.16 -57.88 378.16 -55.75 372.94 C-53.05 366.44 -49.41 359.92 -44.93 354.5 C-42.85 351.81 -41.73 349.35 -40.5 346.19 C-39.08 342.62 -37.64 339.19 -35.81 335.81 C-33.69 331.72 -32.79 327.51 -32 323 C-32.99 323 -33.98 323 -35 323 Z " fill="#000000" transform="translate(617,42)"/>
<path d="M0 0 C3.73 1.42 4.2 2.39 6.06 5.81 C7.92 10.1 8.86 13.48 8.12 18.19 C6.83 20.84 5.39 22.87 3.5 25.12 C0.09 30.24 1.11 36.88 1.44 42.75 C1.46 43.17 1.46 43.17 1.54 45.29 C1.78 49.7 2.29 53.12 4.12 57.19 C7.86 74.1 7.86 74.1 3.12 82.19 C1.19 81.88 1.19 81.88 -0.88 81.19 C-1.2 80.2 -1.54 79.21 -1.88 78.19 C-2.49 78.08 -3.11 77.98 -3.75 77.88 C-5.88 77.19 -5.88 77.19 -7.56 74.62 C-8.79 71.41 -9.13 68.74 -9.45 65.36 C-9.94 62.84 -10.86 61.01 -12.06 58.75 C-14.52 54.13 -16.38 49.43 -18.12 44.5 C-18.38 43.79 -18.64 43.07 -18.91 42.34 C-20.95 36.48 -22.01 30.73 -22.06 24.5 C-22.08 23.77 -22.09 23.05 -22.11 22.3 C-21.84 19.88 -20.97 18.35 -19.88 16.19 C-19.6 14.04 -19.6 14.04 -19.5 11.81 C-19.02 7.26 -18.3 4.45 -14.88 1.19 C-9.96 -0.05 -5.03 0.24 0 0 Z " fill="#000000" transform="translate(1720.875,121.8125)"/>
</svg>
